<svg xmlns="http://www.w3.org/2000/svg" width="118" height="118" viewBox="0 0 118 118"><path fill="#1d1c1a" style="opacity: 0.5" d="M91.18 103.3c-1.72 9.2-6.8 11.8-15.26 7.77-4.48 8.23-10.12 9.12-16.92 2.68-6.8 6.44-12.44 5.55-16.92-2.68-8.46 4.02-13.54 1.43-15.26-7.78-9.29 1.22-13.33-2.82-12.11-12.1-9.21-1.73-11.8-6.81-7.78-15.27C-1.3 71.44-2.19 65.8 4.25 59c-6.44-6.8-5.55-12.44 2.68-16.92-4.02-8.46-1.43-13.54 7.78-15.26-1.22-9.29 2.82-13.33 12.11-12.11 1.72-9.21 6.8-11.8 15.26-7.78C46.56-1.3 52.2-2.2 59 4.25c6.8-6.44 12.44-5.55 16.92 2.68C84.38 2.9 89.46 5.5 91.18 14.7c9.29-1.22 13.33 2.82 12.11 12.1 9.21 1.73 11.8 6.81 7.78 15.27 8.23 4.48 9.12 10.12 2.68 16.92 6.44 6.8 5.55 12.44-2.68 16.92 4.02 8.46 1.43 13.55-7.78 15.26 1.22 9.29-2.82 13.33-12.11 12.11z"/></svg>
