<svg xmlns="http://www.w3.org/2000/svg" width="91" height="91" viewBox="0 0 91 91"><defs><clipPath id="a"><path fill="#fff" d="M842.79 377.93c-1.3 6.95-5.14 8.9-11.52 5.87-3.38 6.2-7.64 6.88-12.77 2.02-5.13 4.86-9.39 4.19-12.77-2.02-6.38 3.03-10.22 1.08-11.52-5.87-7 .91-10.06-2.13-9.14-9.14-6.95-1.3-8.9-5.14-5.87-11.52-6.2-3.38-6.88-7.64-2.02-12.77-4.86-5.13-4.19-9.39 2.02-12.77-3.04-6.38-1.08-10.22 5.87-11.52-.92-7 2.13-10.06 9.14-9.14 1.3-6.95 5.14-8.9 11.52-5.87 3.38-6.2 7.64-6.88 12.77-2.02 5.13-4.86 9.39-4.19 12.77 2.02 6.38-3.04 10.22-1.08 11.52 5.87 7-.92 10.05 2.13 9.14 9.14 6.95 1.3 8.9 5.14 5.87 11.52 6.2 3.38 6.88 7.64 2.02 12.77 4.86 5.13 4.19 9.39-2.02 12.77 3.04 6.38 1.08 10.22-5.87 11.52.91 7-2.13 10.05-9.14 9.14z"/></clipPath></defs><path fill="none" d="M69.79 78.93c-1.3 6.95-5.14 8.9-11.52 5.87-3.38 6.2-7.64 6.88-12.77 2.02-5.13 4.86-9.39 4.19-12.77-2.02-6.38 3.03-10.22 1.08-11.52-5.87-7 .91-10.06-2.13-9.14-9.14-6.95-1.3-8.9-5.14-5.87-11.52C0 54.89-.68 50.63 4.18 45.5-.68 40.37-.01 36.1 6.2 32.73c-3.04-6.38-1.08-10.22 5.87-11.52-.92-7 2.13-10.06 9.14-9.14 1.3-6.95 5.14-8.9 11.52-5.87C36.11 0 40.37-.68 45.5 4.18 50.63-.68 54.89-.01 58.27 6.2c6.38-3.04 10.22-1.08 11.52 5.87 7-.92 10.05 2.13 9.14 9.14 6.95 1.3 8.9 5.14 5.87 11.52 6.2 3.38 6.88 7.64 2.02 12.77 4.86 5.13 4.19 9.39-2.02 12.77 3.04 6.38 1.08 10.22-5.87 11.52.91 7-2.13 10.05-9.14 9.14z"/><path fill="none" stroke="#bd272c" stroke-linecap="round" stroke-linejoin="round" stroke-miterlimit="50" stroke-width="4" d="M842.79 377.93c-1.3 6.95-5.14 8.9-11.52 5.87-3.38 6.2-7.64 6.88-12.77 2.02-5.13 4.86-9.39 4.19-12.77-2.02-6.38 3.03-10.22 1.08-11.52-5.87-7 .91-10.06-2.13-9.14-9.14-6.95-1.3-8.9-5.14-5.87-11.52-6.2-3.38-6.88-7.64-2.02-12.77-4.86-5.13-4.19-9.39 2.02-12.77-3.04-6.38-1.08-10.22 5.87-11.52-.92-7 2.13-10.06 9.14-9.14 1.3-6.95 5.14-8.9 11.52-5.87 3.38-6.2 7.64-6.88 12.77-2.02 5.13-4.86 9.39-4.19 12.77 2.02 6.38-3.04 10.22-1.08 11.52 5.87 7-.92 10.05 2.13 9.14 9.14 6.95 1.3 8.9 5.14 5.87 11.52 6.2 3.38 6.88 7.64 2.02 12.77 4.86 5.13 4.19 9.39-2.02 12.77 3.04 6.38 1.08 10.22-5.87 11.52.91 7-2.13 10.05-9.14 9.14z" clip-path="url(&quot;#a&quot;)" transform="translate(-773 -299)"/></svg>