<?xml version="1.0" encoding="utf-8"?>
<svg display="none" height="0" version="1.1" width="0" xmlns="http://www.w3.org/2000/svg" xmlns:xlink="http://www.w3.org/1999/xlink">
	<title>iconset</title>
	<desc></desc>
	<defs>
		<symbol id="c1" viewBox="0 0 100 100">
			<path d="M45.8,48.1c5.8-6.4,5-17.6-3.2-23.5c0.9,0.2,1.9,0.2,2.8,0.5c3.3,0.8,6.1,2.5,8.6,4.7c4.8,4.2,8.1,9.5,9.8,15.7
				c0.7,2.7,1,5.5,0.8,8.3c-0.2,1.8-0.6,3.6-1.3,5.2c-0.1,0.2-0.1,0.3-0.2,0.6c1.2-0.4,2-1.1,2.7-2c1.4-1.8,2.1-3.8,2.5-6
				c0.2-1.4,0.3-2.7,0-4.1c0-0.1,0-0.1,0-0.2c0,0,0.1,0,0.1-0.1c0.5,1.1,1.2,2.1,1.6,3.2c2.9,7.1,1.8,13.7-2.7,19.7
				c-2.9,3.8-6.6,6.3-11.3,7.3c-5.5,1.2-10.6,0-15.3-3.1c-3.6-2.4-6-5.7-7-9.9c-1.1-4.6-0.3-8.8,2.3-12.7c1.3-1.9,2.8-3.8,4.1-5.7
				c1.2-1.6,2.1-3.4,2.5-5.3c0.3-1.5,0.2-3-0.1-4.5c0-0.1,0-0.1,0-0.2c0,0,0-0.1,0.1-0.2C45.8,39.4,46.4,43.6,45.8,48.1z M51.7,52
				c-0.2,1.6-0.3,3-0.5,4.4c-0.4,2.5-1.7,4.4-4,5.6c-0.5,0.3-1,0.5-1.4,0.9c-0.5,0.5-1.1,1-1.4,1.6c-1.1,2.4-0.5,5.5,2.3,7
				c1.3,0.7,2.8,0.9,4.3,0.9c2.8-0.1,4.9-1.6,5.8-4.3c0.6-1.9,0.5-3.8,0.2-5.7c-0.5-3.1-1.6-5.9-3.5-8.4C53,53.3,52.3,52.7,51.7,52z
				"/>
			<path d="M50.1,100C22.7,100,0.3,77.6,0.3,50s22.3-50,49.8-50s49.8,22.4,49.8,50S77.6,100,50.1,100z M50.1,5.3
			C25.6,5.3,5.6,25.4,5.6,50s20,44.7,44.6,44.7S94.7,74.7,94.7,50S74.7,5.3,50.1,5.3z"/>
			<polygon points="18.5,85.7 15.1,82.3 82.2,14.9 85.6,18.3"/>
		</symbol>

		<symbol id="c2" viewBox="0 0 100 100">
			<path d="M50,100C22.4,100,0,77.6,0,50S22.4,0,50,0s50,22.4,50,50S77.6,100,50,100z M50,5.2C25.3,5.2,5.2,25.3,5.2,50
			S25.3,94.8,50,94.8S94.8,74.7,94.8,50S74.7,5.2,50,5.2z"/>
			<path d="M37.9,65.9c0-1.3,0-2.4,0-3.6c0-0.7,0.4-1.1,1-1c0.6,0,0.9,0.4,0.9,0.9c0,1.2,0,2.4,0,3.6c0.1-0.1,0.2-0.2,0.3-0.2
				c0.6-0.6,1.3-1.3,1.9-1.9c0.8-0.8,1.3-0.9,1.8-0.4c0.5,0.5,0.4,1-0.4,1.8c-0.7,0.7-1.4,1.4-2.2,2.2c0.2,0,0.3,0,0.4,0
				c1,0,2.1,0,3.1,0c0.7,0,1.1,0.3,1.1,1c0,0.6-0.4,1-1.1,1c-0.6,0-1.1,0-1.7,0c-0.6,0-1.1,0-1.8,0c0.1,0.1,0.2,0.3,0.3,0.3
				c0.7,0.7,1.5,1.5,2.2,2.2c0.6,0.6,0.4,1.6-0.5,1.7c-0.3,0-0.7-0.1-0.9-0.3c-0.7-0.7-1.4-1.4-2.1-2.1c-0.1-0.1-0.2-0.2-0.4-0.4
				c0,0.6,0,1.2,0,1.7c0,0.6,0,1.3,0,1.9c0,0.6-0.4,1-1,1c-0.6,0-1-0.4-1-1c0-1.1,0-2.2,0-3.2c0-0.1,0-0.2,0-0.4
				c-0.9,0.9-1.7,1.7-2.5,2.5c-0.3,0.3-0.6,0.5-1,0.4c-0.8-0.2-1.1-1.1-0.5-1.7c0.7-0.7,1.5-1.5,2.2-2.2c0.1-0.1,0.2-0.2,0.4-0.4
				c-0.5,0-0.8,0-1.2,0c-0.8,0-1.6,0-2.4,0c-0.6,0-1.1-0.4-1-1c0-0.6,0.4-0.9,1.1-0.9c1,0,2,0,3,0c0.1,0,0.3,0,0.4,0
				c0-0.1,0.1-0.1,0.1-0.2c-0.4-0.3-0.7-0.6-1.1-1c-0.5-0.5-1-0.9-1.4-1.4c-0.5-0.5-0.5-1-0.1-1.5c0.4-0.4,1-0.4,1.5,0.1
				C36.2,64.1,37,64.9,37.9,65.9z"/>
			<path d="M62.1,67.3c0,0.8,0,1.7-0.1,2.5c-0.2,1-1,1.5-2.2,1.4c-0.9-0.1-1.7-0.7-1.7-1.6c-0.1-1.5-0.1-3,0-4.6
				c0-1.1,0.9-1.8,2-1.8c1.1,0,1.9,0.8,1.9,1.9C62.1,65.9,62.1,66.6,62.1,67.3C62.1,67.3,62.1,67.3,62.1,67.3z"/>
			<path d="M54,63.2c0,0.7,0,1.5,0,2.2c-0.1,1.1-0.8,1.8-2,1.8c-1.2,0-2-0.7-2-1.9c0-1.4,0-2.8,0-4.2c0-1.1,0.8-1.9,2-1.9
				c1.1,0,1.9,0.7,2,1.8C54,61.8,54,62.5,54,63.2z"/>
			<path d="M70.1,63.2c0,0.7,0,1.4,0,2.2c0,1.1-0.8,1.9-2,1.8c-1.1,0-2-0.7-2-1.8c0-1.4,0-2.9,0-4.3c0-1.1,0.8-1.9,2-1.9
				c1.2,0,2,0.8,2,1.9C70.1,61.8,70.1,62.5,70.1,63.2z"/>
			<path d="M74,46.1c-0.2-2.7-1.4-4.9-3.5-6.7c-1.9-1.6-4.2-2.4-6.7-2.3c-0.3,0-0.5-0.1-0.6-0.4c-0.6-1.9-1.6-3.5-2.9-5
				c-3.5-3.8-7.8-5.3-12.9-4.5c-3.7,0.6-6.7,2.6-9,5.5c-0.1,0.1-0.3,0.2-0.5,0.3c-0.8,0.1-1.5,0.1-2.3,0.2c-6.3,1.2-10.4,7-9.8,13
				c0.3,2.8,1.3,5.1,3.2,7.1c2.4,2.6,5.5,3.8,9,3.8c4.3,0,8.5,0,12.8,0c4.4,0,8.7,0,13.1,0c2.5,0,4.8-0.8,6.7-2.5
				C73.3,52.4,74.4,49.5,74,46.1z M56.9,42c-0.1-1-1-3.2-2.5-4.6C53.1,36,52,35.9,49,35.8c0-0.8,0-1.5,0-2.3
				c7-0.2,10.4,4.5,10.2,8.5C58.5,42,57.7,42,56.9,42z"/>
		</symbol>

		<symbol id="c3" viewBox="0 0 100 100">
			<path d="M50,100C22.4,100,0,77.6,0,50S22.4,0,50,0c27.6,0,50,22.4,50,50S77.6,100,50,100z M50,5.2C25.3,5.2,5.2,25.3,5.2,50
			S25.3,94.8,50,94.8S94.8,74.7,94.8,50S74.7,5.2,50,5.2z"/>
			<path d="M35.1,38.5c1.1-1.1,2.2-2.2,3.4-3.3c-1.6-1.5-3.4-3.1-5.2-4.7c-0.9-0.8-2.2-0.7-3,0.2c-0.8,0.8-0.9,2.1-0.1,3
				C31.9,35.4,33.6,37,35.1,38.5z"/>
			<path d="M66.6,64c-0.9-1-1.9-2-2.6-2.8c-1.1,1.1-2.3,2.2-3.4,3.3c0,0,0,0,0,0.1c1.6,1.6,3.2,3.2,4.8,4.8c0.9,0.9,2.2,0.9,3.1,0
				c0.9-0.9,0.9-2.2,0-3.2C67.9,65.4,67.2,64.7,66.6,64z"/>
			<path d="M74.6,47.6c-2.3,0-4.9,0-7.2,0c-0.1,0-0.4,0-0.4,0c0,1.5,0,2.9,0,4.4c1,0,0.3,0,0.4,0c2.4,0,4.9,0,7.2,0
				c1.1,0,2-1.1,2-2.3C76.6,48.5,75.8,47.6,74.6,47.6z"/>
			<path d="M51.8,68c-1.5,0-2.9,0-4.4,0c0,0,0,0.2,0,0.3c0,2.1,0,4.2,0,6.4c0,1.4,0.9,2.3,2.2,2.3c1.3,0,2.2-0.9,2.2-2.3
				c0-2.1,0-4.2,0-6.4C51.8,68.2,51.8,68,51.8,68z"/>
			<path d="M31,52.1c0-1.5,0-2.9,0-4.4c-2,0-4.3,0-6.6,0c-1.4,0-2.1,0.9-2.1,2.2c0,1.4,0.9,2.2,2.3,2.2C26.8,52.1,28.7,52.1,31,52.1
				C31,52.1,31,52.1,31,52.1z"/>
			<path d="M30.3,66c-0.8,0.8-0.8,2.1,0.1,3c0.8,0.9,2.2,1,3,0.1c1.7-1.7,3.4-3.4,4.8-4.8c-1-1-2.1-2.1-3.1-3.1
				C33.6,62.7,31.9,64.3,30.3,66z"/>
			<path d="M47.3,32c1.5,0,2.9,0,4.4,0c0-3,0-4.9,0-7.3c0-0.3-0.1-0.6-0.3-0.9c-0.5-0.9-1.5-1.2-2.6-0.9c-0.9,0.2-1.5,1-1.5,2
				c0,2.3,0,4.7,0,6.9C47.3,31.9,47.3,32,47.3,32z"/>
			<path d="M68.7,33.8c0.9-0.9,0.9-2.2,0-3.1c-0.9-0.9-2.2-0.9-3.2,0c-1.2,1.1-2.3,2.3-3.4,3.4c-0.5,0.5-1,1-1.3,1.2
				c1.1,1.1,2.1,2.1,3.2,3.2C65.5,37.1,67.1,35.4,68.7,33.8z"/>
			<path d="M65.3,49.9c0-8.8-6.9-15.8-15.8-15.8c-8.8,0-15.8,6.9-15.8,15.8c0,8.8,6.9,15.8,15.7,15.8C58.3,65.7,65.3,58.7,65.3,49.9
				z M50,40.9c4-0.4,8.7,3.1,8.5,9.1c-0.7,0-1.4,0-2.2,0c0-2-0.4-3.6-1.8-4.9c-1.3-1.3-3.6-2-4.6-2C50,42.3,50,41.6,50,40.9z"/>
		</symbol>

		<symbol id="c4" viewBox="0 0 100 100">
			<rect x="47.4" y="2.6" transform="matrix(0.7071 0.7071 -0.7071 0.7071 50.1421 -20.4707)" width="4.8" height="95.3"/>
			<path d="M50,100C22.4,100,0,77.6,0,50S22.4,0,50,0s50,22.4,50,50S77.6,100,50,100z M50,5.2C25.3,5.2,5.2,25.3,5.2,50
				S25.3,94.8,50,94.8S94.8,74.7,94.8,50S74.7,5.2,50,5.2z"/>
			<path d="M66.9,48.7c-0.9-3.5-2.6-6.7-4.6-9.7c-3.4-5.3-7.4-10-11.8-14.4C50.4,24.4,50.2,25,50,24c0,0-0.1,0-0.1,0
				c-0.1,0-0.2,0.2-0.3,0.3c-3.1,3-5.9,6.3-8.6,9.7c-2.7,3.5-5.1,7.1-6.8,11.1c-1.4,3.3-2.3,6.6-1.9,10.3c0.4,3.5,1.6,6.7,3.9,9.3
				c4.2,4.9,9.5,7,15.9,6.3c3.7-0.4,6.9-1.9,9.6-4.4C67.1,61.7,68.8,55.6,66.9,48.7z M52,65.9c-3,0-6.8-1-9.4-3.2
				c-3.3-2.8-5.4-6.6-5.5-10.6c1.2,0,2.3,0,3.4,0c0.1,3,1.5,5.3,3.6,7.3c2,2,4.8,3,7.8,3.1C52,63.6,52,64.7,52,65.9z"/>
		</symbol>

		<symbol id="c5" viewBox="0 0 100 100">
			<path d="M50,100C22.4,100,0,77.5,0,49.9C0,22.3,22.4-0.1,50-0.1s50,22.5,50,50.1C100,77.5,77.6,100,50,100z M50,5.2
				C25.3,5.2,5.2,25.2,5.2,49.9c0,24.7,20.1,44.8,44.8,44.8s44.8-20.1,44.8-44.8C94.8,25.2,74.7,5.2,50,5.2z"/>
			<path d="M40.3,66.6c-0.3,0.4-0.7,0.8-1.1,1.3c-1.6,1.9-4.2,2-6,0.3c-0.4-0.4-0.8-0.7-1.1-1.1c-1.5-1.6-1.4-4,0.2-5.5
				c0.5-0.4,1-0.9,1.4-1.2c-0.7-1.8-1.5-3.5-2.2-5.2c-0.1-0.1-0.3-0.3-0.5-0.3c-0.7,0-1.5,0-2.2-0.1c-1.7-0.3-3.2-1.8-3.5-3.7
				c-0.1-0.9-0.2-1.9-0.1-2.9c0.2-2,1.8-3.4,3.9-3.4c0.6,0,1.2,0,1.8,0c0.4,0,0.5-0.1,0.6-0.5c0.7-1.7,1.4-3.4,2.1-5.1
				c0.1-0.2,0-0.4-0.1-0.6c-0.4-0.5-0.9-0.9-1.3-1.4c-1.6-1.7-1.6-4,0.1-5.7c0.4-0.4,0.8-0.8,1.2-1.2c1.5-1.3,3.8-1.3,5.2,0.1
				c0.5,0.5,1,1,1.4,1.5c0.2,0.2,0.4,0.3,0.7,0.1c1.5-0.7,3.1-1.3,4.6-1.9c0.4-0.1,0.5-0.3,0.5-0.7c0-0.5,0-1,0-1.4
				c0-1.9,0.9-3.1,2.7-3.6c1.6-0.4,3.2-0.4,4.7,0c1.7,0.4,2.6,1.7,2.6,3.4c0,0.6,0,1.2,0,1.9c0,0.4,0.1,0.5,0.5,0.6
				c1.6,0.7,3.1,1.3,4.7,2c0.1,0.1,0.4,0,0.5-0.1c0.5-0.5,1-1,1.5-1.5c1.6-1.6,4-1.6,5.6,0c0.4,0.4,0.7,0.7,1.1,1.1
				c1.5,1.6,1.5,4,0,5.6c-0.5,0.6-1.1,1.1-1.6,1.7c-0.1,0.1-0.2,0.4-0.1,0.6c0.6,1.5,1.2,2.9,1.8,4.4c0.2,0.6,0.4,0.8,1,0.8
				c0.7-0.1,1.4,0,2,0c1.9,0,3.3,1.3,3.6,3.1c0.2,1.4,0.2,2.8-0.3,4.1c-0.7,2-2,2.9-4.1,2.9c-0.7,0-1.5-0.2-1.9,0.1
				c-0.4,0.3-0.5,1.1-0.8,1.7c-0.4,0.9-0.8,1.8-1.3,2.9c-1.2-1.2-2.2-2.2-3.3-3.3c-0.4-0.4-1.1-0.8-1.2-1.3
				c-0.1-0.5,0.3-1.2,0.4-1.7c2.2-7.9-2.7-15.8-10.8-17.3c-7.6-1.4-14.9,3.8-16.1,11.5c-1.1,7.4,4,14.4,11.3,15.6
				c2.5,0.4,4.9,0.2,7.2-0.7c0.2-0.1,0.5-0.1,0.7,0.1c1.4,1.4,2.8,2.9,4.3,4.4c-0.8,0.4-1.8,0.8-2.7,1.2c-0.5,0.2-1,0.4-1.6,0.6
				c-0.3,0.1-0.4,0.3-0.4,0.6c0,1,0,1.9-0.1,2.9c-0.3,2-2.2,3.5-4.2,3.5c-1.5,0-2.9-0.1-4.1-1.2c-1-0.9-1.6-2-1.6-3.4
				c0-0.7,0.2-1.6-0.1-2.2c-0.3-0.5-1.3-0.5-1.9-0.8C42.6,67.6,41.5,67.1,40.3,66.6z"/>
				<path d="M65.8,72c0.2-2-0.6-3.9-2.3-5.5c-3.2-3-6.3-6.2-9.4-9.2c-1.3-1.3-2.9-1.7-4.7-1.8c-0.1,0-0.2,0-0.2,0
				c-2.3,0.3-3.8-0.8-5-2.6c-0.6-0.8-1.2-1.7-1.7-2.6c-0.2-0.3-0.3-0.8-0.4-1.2c-0.1-0.7,0.4-1,1.1-0.7c0.3,0.1,0.5,0.3,0.8,0.4
				c0.8,0.5,1.7,1.1,2.5,1.7c0.6,0.4,1.1,0.4,1.7,0.1c0.8-0.4,1.4-1,1.8-1.8c0.3-0.6,0.6-1.3,0.8-1.9c0.4-0.9,0.2-1.8-0.6-2.4
				c-0.8-0.6-1.7-1.2-2.6-1.8c-0.3-0.2-0.7-0.4-1-0.6c-0.2-0.2-0.5-0.5-0.4-0.6c0.1-0.2,0.4-0.5,0.6-0.5c0.5-0.2,1-0.2,1.5-0.3
				c1.4-0.1,2.9-0.1,4.3,0.4c1.8,0.6,3.1,1.8,3.6,3.6c0.1,0.5,0.1,1.1,0.1,1.6c-0.2,2.6,0.6,4.8,2.4,6.6c3.1,3,6.2,6.1,9.2,9.2
				c1.4,1.4,3.1,2,5,2c1.2,0,2.1,0.3,2.9,1.1c1.2,1.1,2,2.6,2.8,4c0,0.1,0,0.1,0.1,0.2c0.1,0.5,0.4,1-0.1,1.3
				c-0.4,0.3-0.8,0-1.2-0.2c-0.9-0.5-1.7-1.1-2.5-1.7c-0.5-0.4-1.1-0.5-1.6-0.1c-0.6,0.4-1.1,0.9-1.5,1.5c-0.4,0.6-0.6,1.2-0.9,1.9
				c-0.4,1.1-0.2,1.7,0.7,2.4c0.7,0.6,1.5,1,2.3,1.5c0.3,0.2,0.6,0.3,0.9,0.5c0.2,0.2,0.5,0.5,0.5,0.6c-0.1,0.2-0.4,0.4-0.7,0.5
				c-0.5,0.1-1.1,0.3-1.6,0.2c-1.2-0.1-2.5-0.1-3.6-0.4C66.9,76.8,65.7,75,65.8,72z"/>
		</symbol>

		<symbol id="c6" viewBox="0 0 100 100">
			<path d="M50,100C22.4,100,0,77.6,0,50C0,22.4,22.4,0,50,0s50,22.4,50,50C100,77.6,77.6,100,50,100z M50,5.2
			C25.3,5.2,5.2,25.3,5.2,50c0,24.7,20.1,44.8,44.8,44.8S94.8,74.7,94.8,50C94.8,25.3,74.7,5.2,50,5.2z"/>
			<path d="M27,65.5c0.2-1.7,0.9-3.2,2.1-4.5c1.7-1.8,3.7-3.1,6-4c1.2-0.5,1.7-1,1.5-2.3c-0.1-0.8,0-1.7,0-2.6
				c0-0.4-0.1-0.5-0.5-0.6c-2.1-0.4-4-1.3-5.5-2.9c-1.9-2-2.4-4.5-1.8-7.1c0.8-3.8,2.7-6.9,5.8-9.1c2.7-1.9,5.6-2.1,8.5-0.5
				c0.2,0.1,0.4,0.3,0.7,0.4c-3.9,2.1-5.3,5.4-4.7,9.5c0.6,4.3,3.6,6.5,7.4,7.9c-1.4,1-2.9,1.5-4.5,1.8c0,1.1,0,2.1,0,3.1
				c3.3-0.4,6.5-0.7,9.9-1.1c0-1.6,0-3.3,0-4.9c-1.7-0.4-3.4-0.7-5-1.3c-2.2-0.8-4.1-2.1-5-4.4c-1.1-2.8-0.3-6.2,1.9-7.8
				c0.4-0.3,0.8-0.6,1.3-0.7c0.6-0.2,0.8-0.5,0.9-1c0.8-2.7,2.3-4.8,4.7-6.3c3.9-2.4,8.8-1.3,11.7,2.5c0.9,1.3,1.6,2.6,2.1,4.1
				c0.1,0.2,0.3,0.5,0.5,0.6c3.1,1,4.2,4.1,3.9,6.9c-0.4,3-2.2,4.8-4.9,5.9c-1.8,0.7-3.6,1.1-5.6,1.6c0,1.4,0,3,0,4.6
				c0,0.7,0.2,1.1,0.9,1.4c0.8,0.3,1.5,0.8,2.1,1.4c0.8,0.9,0.7,2.2-0.4,2.7c-1.3,0.6-2.7,1.1-4,1.4c-3.7,0.8-7.5,1.5-11.2,2.3
				c-2.3,0.5-4.5,1.3-6.5,2.5c-1.9,1.1-3.3,2.7-3.5,5c-0.1,1.5,0.3,2.9,0.8,4.3c0.1,0.2,0.2,0.4,0.3,0.8c-2.3-0.8-4.3-1.9-6.2-3.3
				c-1.9-1.5-3.2-3.3-3.6-5.8C27,66,27,65.7,27,65.5z"/>
			<path d="M66.9,56.5c3.3,1.1,6.3,2.6,8.4,5.4c1.9,2.6,1.8,5.7-0.2,8.2c-1.9,2.3-4.4,3.8-7.2,4.9c-3,1.2-6.1,1.9-9.2,2.4
				c-0.2,0-0.3,0-0.5,0c-2.3-0.8-4.5-1.8-6.2-3.6c-2.3-2.4-2-5.6,0.7-7.5c0.7-0.5,1.5-0.9,2.3-1.2c2.2-0.8,4.3-1.5,6.5-2.3
				c1.2-0.4,2.4-0.9,3.6-1.5c0.6-0.3,1.1-0.6,1.5-1c1.1-1,1.2-2.2,0.4-3.4C67.1,56.7,67,56.6,66.9,56.5z"/>
		</symbol>

		<symbol id="c7" viewBox="0 0 100 100">
			<path d="M50,100C22.4,100,0,77.6,0,50C0,22.4,22.4,0,50,0c27.6,0,50,22.4,50,50C100,77.6,77.6,100,50,100z M50,5.2
			C25.3,5.2,5.2,25.3,5.2,50S25.3,94.8,50,94.8S94.8,74.7,94.8,50S74.7,5.2,50,5.2z"/>
			<path d="M50,42.3c5,0,10,0,15,0c2.1,0,3.5,1.7,3.6,3.3c0.1,1.9,0.1,3.8,0.1,5.8c0,6,0,12,0,18c0,0.9-0.2,1.7-0.6,2.4
				c-0.7,1.1-1.7,1.7-3,1.7c-10,0-20.1,0-30.1,0c-1.8,0-3.4-1.4-3.6-3.2c-0.1-0.7-0.1-1.4-0.1-2c0-7.2,0-14.5,0-21.7
				c0-0.8,0.1-1.5,0.4-2.2c0.7-1.3,1.7-2,3.2-2C40,42.3,45,42.3,50,42.3z M49.8,66.4C49.8,66.4,49.8,66.4,49.8,66.4
				c0.8,0,1.5,0,2.3,0c0.6,0,0.6,0,0.6-0.6c0-2.2-0.3-4.3-0.8-6.4c-0.1-0.6-0.1-1,0.5-1.4c1.6-1.1,2.6-2.5,2.5-4.6
				c-0.1-1.1-0.5-2-1.3-2.8c-1.6-1.5-4-1.8-6.1-0.8c-2.4,1.2-3.2,4.4-2,6.3c0.5,0.8,1.2,1.6,2,2.1c0.2,0.2,0.3,0.4,0.2,0.6
				c-0.1,0.2-0.1,0.3-0.1,0.5C47.3,61.6,47,63.8,47,66c0,0.4,0.1,0.5,0.5,0.4C48.3,66.4,49,66.4,49.8,66.4z"/>
			<path d="M43.4,39.7c-2.1,0-4.2,0-6.3,0c0-0.1,0-0.1,0-0.2c0-3.7,0.8-7.2,3.1-10.2c2-2.7,4.7-4.4,8.1-4.9
				c5.6-0.9,10.8,2.1,13.1,7.3c0.9,1.9,1.4,3.9,1.5,6c0,0.6,0.1,1.2,0.1,1.8c-2.2,0-4.3,0-6.4,0c-0.1-0.8-0.1-1.6-0.2-2.4
				c-0.3-2.1-1.1-4-2.8-5.5c-2.1-1.8-5.1-1.7-7.1,0.1c-1.5,1.4-2.3,3.1-2.7,5.1C43.6,37.8,43.5,38.7,43.4,39.7z"/>
		</symbol>

		<symbol id="c8" viewBox="0 0 100 100">
			<path d="M49.5,100C22.2,100,0,77.6,0,50c0-27.5,22.2-50,49.5-50C76.8,0.1,99,22.5,99,50C99,77.6,76.8,100,49.5,100z M49.5,5.3
			C25.1,5.3,5.2,25.4,5.2,50s19.9,44.7,44.3,44.7S93.8,74.7,93.8,50S73.9,5.3,49.5,5.3z"/>
			<path d="M33.4,50.8c1.4,1.8,2.7,3.4,4,5.1c0,0,0.1,0,0.1,0c-0.1-0.8-0.2-1.7-0.4-2.5c-0.3-1.9-0.6-3.8-0.9-5.7
				c0-0.1,0-0.3,0.1-0.4c2.3-2.7,4.6-5.2,7.4-7.3c0.1,0,0.1-0.1,0.2-0.1c0.9,2.8,1.8,5.6,2.7,8.3c0,0,0.1,0,0.1,0
				c0-0.5,0.1-1,0.1-1.5c0.2-3,0.4-6,0.7-9c0-0.4,0.2-0.5,0.5-0.7c3.9-2.2,8.1-3.8,12.5-4.9c3.9-1,7.8-1.6,11.7-1.8
				c0.2,0,0.5,0,0.9,0c0,1.4,0.1,2.8,0,4.2c-0.2,3.7-1.2,7.1-2.8,10.4c-1.6,3.2-3.7,6-6.3,8.4c-0.1,0.1-0.4,0.2-0.6,0.2
				c-2.7,0.2-5.5,0.4-8.2,0.5c-2,0.1-4,0.3-6,0.5c3.7,0.8,7.3,1.6,11,2.5c-3,2.7-6.1,5.1-9.4,7.2c-3.6,2.3-7.3,4.2-11.4,5.4
				c-1.9,0.5-3.9,0.9-5.9,0.7c-0.6,0-1.1-0.2-1.7-0.3c-0.4-0.1-0.6-0.1-0.9,0.2c-2.1,1.9-4.1,3.8-6.2,5.8c-0.1,0.1-0.2,0.2-0.4,0.3
				c1.2-2.8,2.8-5.5,4.6-8c-1.8-2.7-1.3-5.6-0.4-8.5c1-3.2,2.7-6,4.6-8.7C33.4,51,33.4,50.9,33.4,50.8z M31.8,67
				c2.2-2.4,4.3-4.8,6.6-7.1c2.3-2.3,4.6-4.5,7.1-6.7c2.4-2.1,4.9-4.2,7.5-6.2c2.6-2,5.2-3.9,7.9-5.7c2.6-1.8,5.4-3.5,8.1-5.2
				C53.5,42.7,41.6,53.6,31.8,67z"/>
		</symbol>

		<symbol id="c9" viewBox="0 0 100 100">
			<path d="M50,100C22.4,100,0,77.6,0,50C0,22.4,22.4,0,50,0c27.6,0,50,22.4,50,50C100,77.6,77.6,100,50,100z M50,5.2
			C25.3,5.2,5.2,25.3,5.2,50S25.3,94.8,50,94.8S94.8,74.7,94.8,50S74.7,5.2,50,5.2z"/>
			<path d="M57.5,43.4c0,5,0,10.1,0,15.1c0,0.4,0.1,0.7,0.5,1c2.6,2.2,4,4.9,4.4,8.3c0.7,6.1-3.3,11.7-9.1,13.3
				c-7,1.9-14.2-2.7-15.4-9.8c-0.8-4.8,0.7-8.7,4.4-11.9c0.3-0.3,0.3-0.5,0.3-0.9c0-10,0-20,0-30c0-3.4,1.9-6.2,5-7.3
				c4.4-1.6,9.2,1.4,9.8,6.1c0.1,0.5,0.1,1,0.1,1.5C57.5,33.7,57.5,38.6,57.5,43.4z M54.2,44.2c0-5.3,0-10.7,0-16
				c0-2.2-1.9-4.1-4.1-4.1c-2.4,0-4.2,1.8-4.2,4.2c0,10.6,0,21.3,0,31.9c0,0.5-0.1,0.7-0.6,1c-2.6,1.6-4.1,3.9-4.4,6.9
				c-0.7,6.1,4.8,11.1,10.8,9.9c3.9-0.7,6.9-3.9,7.4-7.9c0.4-3.4-1.1-7-4.4-9c-0.4-0.2-0.5-0.5-0.5-0.9C54.2,55,54.2,49.6,54.2,44.2
				z"/>
			<path d="M47.6,42.8c1.6,0,3.1,0,4.7,0c0,0.2,0,0.5,0,0.7c0,6.2,0,12.4,0,18.6c0,0.4,0.1,0.7,0.5,0.8c2.7,1.3,4.3,4.2,3.9,7.1
				c-0.5,3.1-2.9,5.4-5.9,5.8c-3.9,0.5-7.5-2.6-7.5-6.6c0-3,1.3-5.1,4-6.4c0.4-0.2,0.4-0.4,0.4-0.8c0-6.2,0-12.3,0-18.5
				C47.6,43.4,47.6,43.2,47.6,42.8z"/>
		</symbol>

		<symbol id="c10" viewBox="0 0 100 100">
			<path d="M50,100C22.4,100,0,77.6,0,50S22.4,0,50,0c27.6,0,50,22.4,50,50S77.6,100,50,100z M50,5.2C25.3,5.2,5.2,25.3,5.2,50
			S25.3,94.8,50,94.8S94.8,74.7,94.8,50S74.7,5.2,50,5.2z"/>
			<path d="M53.5,76c0.7-0.2,1-0.8,1-1.6c0-14.7,0-15.4,0-30.1c0-1.2-0.3-1.5-1.5-1.5c-1.4,0-3.7,0-5,0c-0.9,0-1.3,0.4-1.4,1.3
				c0,0.1,0,0.2,0,0.4c0,14.6,0,15.2,0,29.8c0,0.8,0.2,1.4,1,1.7C49.2,76,51.8,76,53.5,76z"/>
			<path d="M49,40.4c4.8,0,9.6,0,14.4,0c1.1,0,1.5-0.4,1.5-1.5c0-2.9,0-5.9,0-8.8c0-1-0.4-1.5-1.4-1.5c-7.3,0-14.7,0-22,0
				c-0.7,0-1.2,0.3-1.6,0.8c-2.1,3-4.1,6-6.2,9c-0.1,0.1-0.2,0.3-0.3,0.5c-0.4,0.8-0.1,1.4,0.8,1.5c0.3,0,0.5,0,0.8,0
				C39.6,40.4,44.3,40.4,49,40.4z"/>
		</symbol>

		<symbol id="c11" viewBox="0 0 100 100">
			<polygon points="18,85.4 14.6,82 82,14.7 85.4,18.1 	"/>
			<path d="M50,100C22.4,100,0,77.6,0,50S22.4,0,50,0s50,22.4,50,50S77.6,100,50,100z M50,5.2C25.3,5.2,5.2,25.3,5.2,50
			S25.3,94.8,50,94.8S94.8,74.7,94.8,50S74.7,5.2,50,5.2z"/>
			<path d="M31.9,43c0.2-0.4,0.3-0.8,0.5-1.1c0.5-0.7,1.1-0.9,1.9-0.9c2.1,0,4.2,0,6.3,0c0.2,0,0.4-0.1,0.6-0.2
			c2.9-2.9,5.7-5.7,8.6-8.6c0.2-0.2,0.4-0.3,0.7-0.2c1.2,0.2,1.7,0.8,1.8,2.1c0,0.1,0,0.3,0,0.4c0,10.3,0,20.7,0,31
			c0,0.4,0,0.8-0.1,1.2c-0.3,1.1-1.1,1.3-1.9,1.4c-0.1,0-0.3-0.1-0.4-0.2c-2.8-2.8-5.7-5.7-8.5-8.5c-0.2-0.2-0.4-0.3-0.7-0.3
			c-1.9,0-3.9,0-5.8,0c-1.7,0-2.3-0.4-2.8-2C31.9,52.4,31.9,47.7,31.9,43z"/>
			<path d="M68.1,66c-0.1,0.6-0.3,1.1-0.8,1.5c-1,0.9-2.3,0.8-3.2-0.1c-1-1-1.9-1.9-2.9-2.9c-1.2-1.2-2.5-2.5-3.7-3.7
			c-1.2-1.3-0.8-3.3,0.9-3.9c0.9-0.3,1.7-0.2,2.4,0.5c2.2,2.2,4.5,4.5,6.7,6.7c0.4,0.4,0.5,0.9,0.7,1.4C68.1,65.7,68.1,65.8,68.1,66z"/>
			<path d="M68.1,34.6c-0.1,0.8-0.6,1.3-1.2,1.9c-2.1,2-4.1,4.1-6.1,6.1c-0.7,0.7-1.5,0.9-2.3,0.6c-0.9-0.2-1.4-0.8-1.6-1.7
			c-0.2-0.8,0-1.5,0.6-2.1c0.4-0.4,0.8-0.8,1.1-1.2c1.8-1.8,3.7-3.7,5.5-5.5c1.3-1.3,3.4-0.8,3.9,1c0,0.1,0.1,0.3,0.1,0.4
			C68.1,34.2,68.1,34.4,68.1,34.6z"/>
			<path d="M62.4,52.3c-1.1,0-2.3,0-3.4,0c-1.1,0-2.1-0.8-2.2-1.9c-0.2-1.1,0.5-2.1,1.6-2.5c0.2-0.1,0.5-0.1,0.8-0.1
			c2.2,0,4.4,0,6.6,0c1.3,0,2.3,1,2.3,2.3c0,1.3-1,2.2-2.3,2.2C64.6,52.3,63.5,52.3,62.4,52.3z"/>
		</symbol>

		<symbol id="c12" viewBox="0 0 100 100">
			<rect x="47.4" y="2.6" transform="matrix(0.7071 0.7071 -0.7071 0.7071 50.1421 -20.4707)" width="4.8" height="95.3"/>
			<path d="M50,100C22.4,100,0,77.6,0,50S22.4,0,50,0s50,22.4,50,50S77.6,100,50,100z M50,5.2C25.3,5.2,5.2,25.3,5.2,50
			S25.3,94.8,50,94.8S94.8,74.7,94.8,50S74.7,5.2,50,5.2z"/>
			<path d="M71.4,42.6c0,2.5,0,5,0,7.5c0,2.5-0.7,4.6-2.3,6.5c-2,2.4-4.1,4.8-6.1,7.2c-0.9,1-1.3,2.1-1.3,3.4c0,1.6,0,3.2,0,4.8
			c0,1.3-0.4,1.7-1.7,1.7c-2,0-3.9,0-5.9,0c-1.1,0-1.6-0.4-1.6-1.6c0-4.1,0-8.3,0-12.4c0-1.4,0.6-2.6,1.6-3.6
			c3.6-3.3,7.1-6.6,10.7-10c0.9-0.8,2.1-0.8,2.9-0.1c0.8,0.8,0.9,2.1,0.1,3c-0.9,1-1.9,2-2.8,2.9c-0.8,0.8-1.5,1.6-2.3,2.4
			c-0.2,0.2-0.1,0.5-0.2,0.7c0.2,0,0.6,0,0.7-0.1c1.8-1.8,3.6-3.6,5.3-5.5c1.3-1.4,0.8-3.7-1-4.5c-0.4-0.2-0.6-0.4-0.6-0.9
			c0-3.2,0-6.4,0-9.6c0-1.5,1-2.6,2.3-2.5c1.3,0,2.2,1,2.2,2.5C71.4,37.2,71.4,39.9,71.4,42.6z"/>
			<path d="M27.1,42.4c0-2.6,0-5.2,0-7.9c0-1.6,0.9-2.6,2.2-2.6c1.3,0,2.3,1.1,2.3,2.6c0,3.1,0,6.3,0,9.4c0,0.5-0.1,0.7-0.6,0.9
			c-1.8,0.8-2.3,3.2-0.9,4.7c1.7,1.8,3.4,3.5,5.1,5.2c0.2,0.2,0.6,0.1,0.8,0.2c-0.1-0.3-0.1-0.6-0.2-0.8c-1.6-1.7-3.3-3.4-4.9-5
			c-0.7-0.7-0.9-1.5-0.5-2.4c0.6-1.3,2.2-1.7,3.3-0.7c2.5,2.3,4.9,4.6,7.4,6.9c1.1,1.1,2.3,2.1,3.4,3.2c1,1,1.5,2.1,1.5,3.6
			c0,4.1,0,8.2,0,12.3c0,1.2-0.4,1.6-1.7,1.6c-2,0-3.9,0-5.9,0c-1.2,0-1.6-0.4-1.6-1.6c0-1.6,0-3.2,0-4.8c0-1.4-0.5-2.5-1.4-3.6
			c-2-2.3-4-4.7-6-7c-1.7-1.9-2.4-4.2-2.4-6.7C27.1,47.5,27.1,44.9,27.1,42.4z"/>
			<path d="M60.8,32.6c-0.4,3.5-0.8,7-1.2,10.4c0,0.2-0.2,0.4-0.4,0.5c-2.9,1.8-5.8,3.7-8.7,5.5c-0.1,0-0.1,0-0.3,0.1
			c0-0.2,0-0.4,0-0.6c0-3.6,0-7.2,0-10.8c0-0.4,0-0.7,0.5-0.9c3.2-1.3,6.5-2.7,9.7-4C60.5,32.7,60.6,32.7,60.8,32.6z"/>
			<path d="M37.8,32.6c1.9,0.8,3.8,1.6,5.6,2.3c1.4,0.6,2.9,1.2,4.3,1.8c0.2,0.1,0.5,0.4,0.6,0.7c0,3.9,0,7.7,0,11.7
			c-0.3-0.2-0.5-0.2-0.7-0.4c-2.7-1.7-5.3-3.3-8-5c-0.5-0.3-0.8-0.7-0.8-1.3c-0.3-3-0.7-5.9-1-8.9C37.8,33.3,37.8,33,37.8,32.6z"/>
			<path d="M59.7,31.5c-2.3,0.9-4.5,1.8-6.8,2.7c-0.8,0.3-1.7,0.6-2.5,1c-0.8,0.4-1.5,0.3-2.4,0c-3.1-1.3-6.1-2.5-9.4-3.8
			c1.6-0.7,3.1-1.3,4.6-1.8c1.8-0.7,3.6-1.4,5.4-2.1c0.3-0.1,0.7-0.2,1-0.1c3.3,1.3,6.5,2.6,9.8,3.9C59.5,31.3,59.6,31.4,59.7,31.5z
			"/>
		</symbol>

		<symbol id="c13" viewBox="0 0 100 100">
			<path d="M50,100C22.4,100,0,77.6,0,50C0,22.4,22.4,0,50,0s50,22.4,50,50C100,77.6,77.6,100,50,100z M50,5.2
			C25.3,5.2,5.2,25.3,5.2,50S25.3,94.8,50,94.8S94.8,74.7,94.8,50S74.7,5.2,50,5.2z"/>
			<path d="M67.5,78.3c-11.6,0-23.3,0-34.9,0c-0.1,0-0.1-0.1-0.2-0.1c-1.6-0.1-2.6-1.4-2.6-3.1c0-12.8,0-25.6,0-38.4
				c0-0.6,0-1.3,0.1-1.9c0.3-2.5,1.4-4.6,3-6.4c1.8-2,4-3.5,6.5-4.6c2.4-1,4.9-1.6,7.5-1.9c0.9-0.1,1.8-0.1,2.8-0.2
				c0.1,0,0.3,0,0.4,0c0.2,0,0.4,0.1,0.7,0.1c1.9,0.2,3.7,0.3,5.6,0.7c4.3,1,8.1,2.9,10.9,6.3c1.7,2.1,2.7,4.5,2.8,7.2
				c0.1,13.1,0,26.2,0,39.4c0,1.1-0.5,2-1.5,2.5C68.4,78.1,67.9,78.2,67.5,78.3z M63.8,39.5c-3.8,0-7.5,0-11.2,0c0,4.4,0,8.9,0,13.3
				c3.7,0,7.4,0,11.2,0C63.8,48.4,63.8,43.9,63.8,39.5z M52.6,71.4c3.8,0,7.5,0,11.2,0c0-4.4,0-8.8,0-13.3c-3.8,0-7.5,0-11.2,0
				C52.6,62.5,52.6,66.9,52.6,71.4z M47.4,52.8c0-4.5,0-8.9,0-13.3c-3.7,0-7.4,0-11.1,0c0,4.4,0,8.9,0,13.3
				C40,52.8,43.6,52.8,47.4,52.8z M47.3,71.4c0-4.4,0-8.9,0-13.3c-3.7,0-7.4,0-11.1,0c0,4.4,0,8.8,0,13.3
				C40,71.4,43.6,71.4,47.3,71.4z M36.3,33.2c9.2,0,18.3,0,27.4,0c-0.1-0.1-0.1-0.2-0.1-0.2c-1.5-2.2-3.8-3.5-6.2-4.4
				c-3.1-1.1-6.3-1.5-9.6-1.1c-3.3,0.3-6.3,1.3-9,3.2C37.8,31.3,36.9,32.1,36.3,33.2z"/>
		</symbol>

		<symbol id="c14" viewBox="0 0 100 100">
			<path d="M50,100C22.4,100,0,77.6,0,50C0,22.4,22.4,0,50,0s50,22.4,50,50C100,77.6,77.6,100,50,100z M50,5.2
			C25.3,5.2,5.2,25.3,5.2,50S25.3,94.7,50,94.7S94.7,74.7,94.7,50S74.7,5.2,50,5.2z"/>
			<path d="M66.5,50c-2.1,8.1-6.1,15.3-12.1,21.2c-1.9-3-3.8-6.1-4.1-9.8c-0.2-2.4,0.7-4.4,2.5-6c1.7-1.5,3.7-2.5,5.7-3.6
				c1.8-1,3.7-2,5.4-3.1c1.5-0.9,2.7-2.2,3.7-4c0.5,1,1.1,1.9,1.5,2.9c1.2,2.6,2.1,5.3,2.5,8.1c0.5,4.5-0.2,8.7-3.4,12.1
				c-2,2.2-4.5,3.3-7.4,3.8c-1.5,0.2-3.1,0.2-4.6,0.4C56,72,65.4,61.2,66.5,50z"/>
			<path d="M30.8,46.6c3.5-0.2,6.9-0.2,10.1,1.1c2.7,1.1,4.1,3.3,4.5,6.1c0.4,2.5,0.2,4.9,0.1,7.4c-0.1,2.5-0.2,5.1,0.5,7.6
				c0.2,0.8,0.6,1.6,0.9,2.5c-0.9,0-1.9,0.1-2.8,0c-3-0.2-5.9-0.8-8.7-2c-3-1.3-5.7-3.2-7.5-6.1c-2-3.2-2.2-6.5-1.3-10.1
				c0.6-2.1,1.3-3.6,2.5-5.5c1.7,5.2,4.3,9.5,7.6,13.7c1.8,2.3,3.9,4.4,6.1,6.4c0.1,0.1,0.2,0.1,0.3,0.2
				C37.2,61.9,32.9,54.9,30.8,46.6z"/>
			<path d="M34.4,40.3c0.8-1.2,1.6-2.5,2.4-3.6c2.2-2.9,4.8-5.4,8.1-7.1c6.4-3.2,12.8-1.6,17,4.2c0.6,0.8,1.1,1.7,1.7,2.6
				c0.2,0.2-16.6-2.6-24.7,2.6c8.3-2.4,16.7-2.7,25.1-0.3c-1,2-2,3.8-3.3,5.5c-1,1.2-2,2.4-3.4,3.2c-2.4,1.4-4.8,1.4-7.2,0.2
				c-2.2-1.1-4.2-2.4-6.3-3.6c-2-1.2-3.9-2.4-6.1-3C36.6,40.6,35.6,40.5,34.4,40.3z"/>
		</symbol>

		<symbol id="c15" viewBox="0 0 100 100">
			<path d="M50,100C22.4,100,0,77.6,0,50C0,22.4,22.4,0,50,0c27.6,0,50,22.4,50,50C100,77.6,77.6,100,50,100z M50,5.2
			C25.3,5.2,5.2,25.3,5.2,50c0,24.7,20.1,44.8,44.8,44.8S94.8,74.7,94.8,50C94.8,25.3,74.7,5.2,50,5.2z"/>
			<path d="M56,65.8c-0.6,0-1.1,0-1.7,0c0.1,1.6-0.3,3-1.7,4c-0.8,0.5-1.6,0.7-2.6,0.7c-2.1-0.2-3.2-1.6-3.5-4.7c-0.3,0-0.6,0-0.8,0
				c-0.3,0-0.5,0-0.9,0c0.1,1.6-0.3,2.9-1.5,3.9c-0.7,0.6-1.6,0.8-2.6,0.8c-2.2-0.1-3.4-1.6-3.7-4.7c-0.3,0-0.6,0-0.8,0
				c-0.3,0-0.5,0-0.9,0c0.1,1.6-0.3,3-1.7,4c-0.8,0.5-1.6,0.7-2.5,0.7c-1.1-0.1-2.1-0.6-2.7-1.6c-0.7-0.9-0.8-2-0.7-3.1
				c-1.8,0-3.5,0-5.3,0c0-1.1,0-2.2,0-3.3c1.7,0,3.5,0,5.3,0c0-0.4,0-0.6,0-0.9c0-9,0-17.9,0-26.9c0-2.2,1.7-3.9,3.9-3.9
				c1.9,0,3.5,1.5,3.7,3.4c0,0.2,0,0.4,0.1,0.7c0.6,0,1.1,0,1.7,0c0-1.3,0.4-2.3,1.4-3.1c0.7-0.6,1.6-0.9,2.5-0.9
				c2.1,0,3.5,1.5,3.8,4.1c0.5,0,1.1,0,1.7,0c0-1.3,0.4-2.4,1.4-3.2c0.7-0.6,1.6-0.9,2.6-0.9c2.1,0.1,3.5,1.6,3.7,4.1
				c0.5,0,1.1,0,1.7,0c0-1.3,0.5-2.5,1.6-3.3c0.8-0.6,1.6-0.8,2.6-0.8c1.6,0.1,3.5,1.3,3.6,4c0.6,0,1.1,0,1.7,0
				c0.5-2.8,1.9-4.2,4.1-4c1.8,0.1,3.6,1.6,3.6,4.1c1.5,0,3,0,4.5,0c0,1.1,0,2.2,0,3.3c-1.5,0-3,0-4.5,0c0,0.3,0,0.6,0,0.8
				c0,9.2,0,18.4,0,27.6c0,1.6-0.7,2.7-2.1,3.4c-1.4,0.7-2.7,0.6-4-0.3c-1.1-0.8-1.6-1.9-1.6-3.2c0-0.2,0-0.5,0-0.7
				c-0.6,0-1.2,0-1.8,0c0.1,1.5-0.2,2.8-1.4,3.8c-0.7,0.6-1.5,0.9-2.5,0.9c-1.2,0-2.2-0.5-3-1.5C56.1,68.1,56,66.9,56,65.8z
				 M37.1,62.4c0-8.1,0-16.2,0-24.2c-0.6,0-1.1,0-1.7,0c0,8.1,0,16.2,0,24.2C36,62.4,36.5,62.4,37.1,62.4z M46.5,62.4
				c0-8.1,0-16.2,0-24.2c-0.6,0-1.1,0-1.7,0c0,8.8,0,16.5,0,24.2C45.4,62.4,45.9,62.4,46.5,62.4z M54.3,38.2c0,8.1,0,16.2,0,24.2
				c0.6,0,1.1,0,1.7,0c0-8.1,0-16.2,0-24.2C55.4,38.2,54.8,38.2,54.3,38.2z M63.7,38.2c0,8.1,0,16.2,0,24.2c0.6,0,1.2,0,1.7,0
				c0-8.1,0-16.2,0-24.2C64.8,38.2,64.3,38.2,63.7,38.2z"/>
		</symbol>

		<symbol id="c16" viewBox="0 0 100 100">
			<path d="M50,100C22.4,100,0,77.6,0,50C0,22.4,22.4,0,50,0s50,22.4,50,50C100,77.6,77.6,100,50,100z M50,5.2
			C25.3,5.2,5.2,25.3,5.2,50c0,24.7,20.1,44.8,44.8,44.8S94.8,74.7,94.8,50C94.8,25.3,74.7,5.2,50,5.2z"/>
			<path d="M60.5,58.5c3.1,0,6.2,0,9.3,0c2.3,0,3.7,1.5,3.7,3.8c0,1.3,0,2.7,0,4c0,2.4-2.1,4.5-4.5,4.5c-6.1,0-12.1,0-18.2,0
				c-2,0-3.6-1.5-3.6-3.6c0-1.7,0-3.4,0-5.1c0-2.1,1.5-3.6,3.6-3.6C54.2,58.5,57.3,58.5,60.5,58.5C60.5,58.5,60.5,58.5,60.5,58.5z"
				/>
			<path d="M37.8,42.8c-3.1,0-6.2,0-9.3,0c-2.3,0-3.8-1.5-3.8-3.8c0-1.3,0-2.7,0-4c0-2.4,2.1-4.5,4.5-4.5c6.1,0,12.1,0,18.2,0
				c2,0,3.5,1.5,3.6,3.6c0,1.7,0,3.4,0,5.1c0,2-1.5,3.5-3.6,3.6C44.1,42.8,41,42.8,37.8,42.8C37.8,42.8,37.8,42.8,37.8,42.8z"/>
			<path d="M48.3,44.5c2.6,0,5.2,0,7.7,0c2.1,0,3.6,1.5,3.6,3.6c0,1.7,0,3.4,0,5.1c0,2-1.5,3.6-3.5,3.6c-5.2,0-10.3,0-15.5,0
				c-2.2,0-3.7-1.5-3.7-3.7c0-1.6,0-3.3,0-4.9c0-2.1,1.5-3.6,3.6-3.6C43.1,44.5,45.7,44.5,48.3,44.5z"/>
			<path d="M63,42.8c-2.3,0-4.5,0-6.8,0c-2.2,0-3.7-1.5-3.7-3.7c0-1.7,0-3.3,0-5c0-2,1.5-3.6,3.6-3.6c4.3,0,8.7,0,13,0
				c2.3,0,4.4,2.1,4.4,4.4c0,1.4,0,2.8,0,4.3c0,2-1.6,3.6-3.6,3.6C67.7,42.8,65.4,42.8,63,42.8C63,42.8,63,42.8,63,42.8z"/>
			<path d="M35.2,58.5c2.3,0,4.5,0,6.8,0c2.2,0,3.7,1.5,3.7,3.7c0,1.7,0,3.3,0,5c0,2.1-1.5,3.6-3.6,3.6c-4.3,0-8.6,0-12.9,0
				c-2.3,0-4.4-2.1-4.4-4.4c0-1.4,0-2.8,0-4.3c0-2,1.6-3.5,3.6-3.6C30.6,58.5,32.9,58.5,35.2,58.5C35.2,58.5,35.2,58.5,35.2,58.5z"
				/>
			<path d="M61.3,50.6c0-0.9,0-1.7,0-2.6c0-2,1.5-3.5,3.5-3.5c1.7,0,3.5,0,5.2,0c1.9,0,3.5,1.5,3.5,3.4c0,1.8,0,3.6,0,5.5
				c0,1.8-1.5,3.4-3.4,3.4c-1.8,0-3.6,0-5.5,0c-1.9,0-3.4-1.6-3.4-3.5C61.3,52.4,61.3,51.5,61.3,50.6z"/>
			<path d="M35.2,50.7c0,0.9,0,1.7,0,2.6c0,2-1.6,3.5-3.5,3.5c-1.1,0-2.3,0-3.4,0c-2,0-3.6-1.5-3.6-3.6c0-1.7,0-3.3,0-5
				c0-2.1,1.5-3.6,3.6-3.6c1.1,0,2.2,0,3.3,0c2,0,3.5,1.5,3.5,3.5C35.2,48.9,35.2,49.8,35.2,50.7z"/>
		</symbol>

		<symbol id="c17" viewBox="0 0 100 100">
			<path d="M50,100C22.4,100,0,77.6,0,50C0,22.4,22.4,0,50,0s50,22.4,50,50C100,77.6,77.6,100,50,100z M50,5.2
			C25.3,5.2,5.2,25.3,5.2,50c0,24.7,20.1,44.8,44.8,44.8S94.8,74.7,94.8,50C94.8,25.3,74.7,5.2,50,5.2z"/>
			<path d="M72.2,31.9c-0.3-0.2-0.8-0.3-1.1-0.3c-1.4,0.1-2.5-0.6-3.6-1.3c-1.3-0.9-2.5-2-4-2.6c-2.1-1-4.3-1-6.3,0
			c-1.4,0.7-2.7,1.7-4.1,2.6c-0.6,0.4-1.2,0.7-1.8,1c-1.4,0.6-2.6,0.2-3.8-0.5c-1.1-0.7-2.1-1.5-3.1-2.2c-3.2-2.2-6.4-2.2-9.6,0
			c-0.9,0.6-1.8,1.3-2.7,1.9c-0.9,0.6-1.9,1-3,1.1c-1.5,0.1-2,1-2.2,2.4c0,0.1,0.2,0.2,0.2,0.3c0,12,0,24,0,36c0,1,0.1,1.9,1,2.3
			c0.5,0.2,0.9,0.4,1.5,0.4c1.7,0,3.1-0.7,4.5-1.6c1-0.7,1.9-1.4,2.8-2c1.9-1.3,3.4-1.3,5.3,0c1.2,0.8,2.3,1.6,3.4,2.3
			c2.2,1.4,4.6,1.8,7.1,0.9c1.3-0.5,2.3-1.3,3.4-2c1-0.7,2-1.3,3-1.9c1.2-0.6,2.5-0.3,3.6,0.4c1.3,0.8,2.6,1.8,3.9,2.6
			c1.3,0.8,2.8,1.3,4.3,1.3c0.9,0,1.7-0.4,2.3-1.1c0.2-0.2,0.3-0.5,0.3-0.8c0-12.5,0-25.1,0-37.6C73.5,32.7,72.9,32.2,72.2,31.9z
			 M47,66.8c-0.1-0.1-0.1-0.1-0.2-0.2c0-3.5,0-7.1,0-10.6c0-0.1-0.1-0.3-0.2-0.3c-0.5-0.3-0.9-0.5-1.4-0.8c-1.1-0.7-2.2-1.5-3.2-2.3
			c-0.9-0.6-1.8-1.2-2.9-1.2c-1.3-0.1-2.2,0.5-3.2,1.2c-1.4,0.9-2.9,1.8-3.9,2.7v-6.3c0-0.1,0.2-0.3,0.3-0.4c1.2-0.9,2.3-1.9,3.7-2.4
			c0.3-0.1,0.6-0.3,0.6-0.5c0-2.8,0.4-5.6,0.4-8.4c0-1.2,0-2.4,0-3.7c0-0.1-0.2-0.1-0.1-0.2c0,0-0.1-0.1-0.1-0.1c0,0-0.1,0-0.1,0
			c1.1-0.6,3-1.2,5.1-0.2c0,4.3,0,8.6,0,12.8c0,0.1,0.1,0.3,0.2,0.4c0.5,0.3,1.1,0.6,1.7,0.9c1.3,0.9,2.6,1.8,3.9,2.7
			c0.7,0.5,1.6,0.7,2.5,0.5c1.2-0.2,2.1-0.8,3.1-1.5c1.3-0.9,2.5-2,3.9-2.6c0.3-0.1,0.4-0.3,0.4-0.7c0-4.1,0-8.1,0-12.2
			c1.1-0.6,3.5-1.5,5.5-0.1c0,0,0,0,0,0c0,0,0,0,0,0c0,4.2,0,8.4,0,12.5c0,0.1,0.1,0.3,0.3,0.4c0.7,0.4,1.4,0.7,2,1.2
			c0.9,0.6,1.8,1.3,2.7,2l0,6.1c0,0.1,0,0.2,0,0.3c0-0.1-0.1-0.1-0.1-0.1c-1.7-0.7-3.1-1.9-4.6-3c-0.9-0.6-1.8-1.2-2.9-1.3
			c-1.4-0.1-2.5,0.5-3.6,1.3c-1.4,1-2.6,2.1-4.2,2.8c-0.3,0.1-0.4,0.3-0.4,0.6c0,3.6,0,7.2,0,10.8C51.8,67.1,49.2,68.3,47,66.8z"/>
		</symbol>

		<symbol id="c18" viewBox="0 0 100 100">
			<path d="M50,100C22.4,100,0,77.6,0,50C0,22.4,22.4,0,50,0s50,22.4,50,50C100,77.6,77.6,100,50,100z M50,5.2
			C25.3,5.2,5.2,25.3,5.2,50c0,24.7,20.1,44.8,44.8,44.8S94.8,74.7,94.8,50C94.8,25.3,74.7,5.2,50,5.2z"/>
			<path d="M48.1,25.8c-0.2-0.1-0.4-0.2-0.7-0.1c-0.8,0-1.5-0.3-2.1-0.8c-0.8-0.5-1.5-1.2-2.3-1.5c-1.2-0.6-2.5-0.6-3.7,0
			c-0.8,0.4-1.6,1-2.4,1.5c-0.3,0.2-0.7,0.4-1,0.6c-0.8,0.4-1.6,0.1-2.2-0.3c-0.6-0.4-1.2-0.9-1.8-1.3c-1.9-1.3-3.8-1.3-5.7,0
			c-0.5,0.4-1.1,0.8-1.6,1.1c-0.5,0.4-1.1,0.6-1.7,0.7c-0.9,0.1-1,0.6-1.1,1.4c0,0.1,0.3,0.1,0.3,0.2c0,7.1,0,14.1,0,21.2
			c0,0.6-0.1,1.1,0.4,1.4c0.3,0.1,0.4,0.2,0.8,0.2c1,0,1.8-0.4,2.6-1c0.6-0.4,1.1-0.8,1.6-1.2c1.1-0.8,2-0.8,3.1,0
			c0.7,0.4,1.3,0.9,2,1.4c1.3,0.8,2.7,1.1,4.2,0.6c0.7-0.3,1.4-0.7,2-1.2c0.6-0.4,1.2-0.8,1.8-1.1c0.7-0.4,1.5-0.2,2.1,0.3
			c0.8,0.5,1.5,1,2.3,1.5c0.8,0.5,1.6,0.8,2.5,0.8c0.6,0,1-0.2,1.3-0.7c0.1-0.1,0.1-0.3,0.1-0.5c0-7.4,0-14.7,0-22.1
			C48.9,26.2,48.5,26,48.1,25.8z M43.3,38c-0.5-0.4-1.2-0.7-1.8-0.8c-0.8-0.1-1.5,0.3-2.2,0.8c-0.8,0.6-1.6,1.2-2.5,1.6
			c-0.2,0.1-0.2,0.2-0.2,0.4c0,2.1,0,4.2,0,6.3c-0.4,0.2-1.9,0.9-3.2,0c0,0-0.1-0.1-0.1-0.1c0-2.1,0-4.2,0-6.2
			c0-0.1-0.1-0.2-0.1-0.2c-0.3-0.2-0.6-0.3-0.8-0.4c-0.6-0.4-1.3-0.9-1.9-1.3c-0.5-0.4-1-0.7-1.7-0.7c-0.8,0-1.5,0.3-2.1,0.7
			C25.8,38.5,25,39,24,39.6v-3.7c1-0.1,0.4-0.2,0.5-0.2c0.7-0.5,1.5-1.1,2.3-1.4c0.2-0.1,0.7-0.2,0.7-0.3c0-1.6,0.5-3.3,0.5-4.9
			c0-0.7,0-1.4,0-2.2c0,0-0.4-0.1-0.3-0.1c0,0-0.2,0-0.2-0.1c0.7-0.4,1.7-0.7,2.9-0.1c0,2.5-0.1,5-0.1,7.5c0,0.1,0.1,0.2,0.1,0.2
			c0.3,0.2,0.7,0.3,1,0.5c0.8,0.5,1.5,1.1,2.3,1.6c0.4,0.3,0.9,0.4,1.4,0.3c0.7-0.1,1.3-0.5,1.8-0.9c0.7-0.6,1.5-1.2,2.3-1.5
			c0.2-0.1,0.2-0.2,0.2-0.4c0-2.4,0.1-4.8,0.1-7.2c0.7-0.4,1.4-0.9,3.4-0.1c0,0,0,0,0,0c0,0-0.1,0-0.1,0c0,2.5-0.1,4.9-0.1,7.4
			c0,0.1,0,0.2,0.1,0.2c0.4,0.2,0.9,0.4,1.3,0.7c0.5,0.4,0.7,0.8,1.7,1.2v3.5C45,39.2,44.1,38.6,43.3,38z"/>
			<path d="M51.8,49.7c0.3,0.1,0.7,0.2,1,0.2c1,0,1.9-0.4,2.7-1c0.6-0.4,1.1-0.8,1.7-1.2c1.1-0.8,2-0.8,3.1,0c0.7,0.4,1.3,0.9,2,1.4
			c1.3,0.8,2.7,1.1,4.2,0.6c0.7-0.3,1.4-0.7,2-1.2c0.6-0.4,1.2-0.8,1.8-1.1c0.7-0.4,1.5-0.2,2.1,0.3c0.8,0.5,1.5,1,2.3,1.5
			c0.8,0.5,1.6,0.8,2.5,0.8c0.6,0,1-0.2,1.3-0.7c0.1-0.1,0.1-0.3,0.1-0.5c0-7.4,0-14.7,0-22.1c0-0.5-0.4-0.8-0.8-1
			c-0.2-0.1-0.4-0.2-0.7-0.1c-0.8,0-1.5-0.3-2.1-0.8c-0.8-0.5-1.5-1.2-2.3-1.5c-1.2-0.6-2.5-0.6-3.7,0c-0.8,0.4-1.6,1-2.4,1.5
			c-0.3,0.2-0.7,0.4-1,0.6c-0.8,0.4-1.6,0.1-2.2-0.3c-0.6-0.4-1.2-0.9-1.8-1.3c-1.9-1.3-3.8-1.3-5.7,0c-0.5,0.4-1.1,0.8-1.6,1.1
			c-0.5,0.4-1.1,0.6-1.7,0.7c-0.9,0.1-1.4,0.6-1.5,1.4c0,0.1-0.1,0.1-0.1,0.2c0,7.1,0,14.1,0,21.2C51,48.9,51.3,49.5,51.8,49.7z
			 M54.4,35.7c0.7-0.5,1.4-1.1,2.3-1.4c0.2-0.1,0.2-0.2,0.2-0.3c0-1.6,0.1-3.3,0.1-4.9c0-0.7,0-1.4,0-2.2c0,0,0.1-0.1,0.1-0.1
			c0,0,0,0,0-0.1c0.7-0.4,1.8-0.7,3-0.1c0,2.5,0,5,0,7.5c0,0.1,0.1,0.2,0.1,0.2c0.3,0.2,0.7,0.3,1,0.5c0.8,0.5,1.5,1.1,2.3,1.6
			c0.4,0.3,0.9,0.4,1.5,0.3c0.7-0.1,1.3-0.5,1.8-0.9c0.7-0.6,1.5-1.2,2.3-1.5c0.2-0.1,0.2-0.2,0.2-0.4c0-2.4,0.2-4.8,0.2-7.2
			c0.7-0.4,1.4-0.9,3.4-0.1c0,0,0,0,0,0c0,0-0.2,0-0.2,0c0,2.5-0.1,4.9-0.1,7.4c0,0.1,0,0.2,0.1,0.2c0.4,0.2,0.8,0.4,1.2,0.7
			c0.5,0.4,0.8,0.8,1.4,1.2l-0.2,3.6c-0.9-0.4-1.6-1.1-2.4-1.7c-0.5-0.4-1-0.7-1.6-0.8c-0.8-0.1-1.4,0.3-2.1,0.8
			c-0.8,0.6-1.5,1.2-2.4,1.6c-0.2,0.1-0.2,0.2-0.2,0.4c0,2.1,0,4.2,0,6.3c-0.4,0.2-1.9,0.9-3.2,0c0,0-0.1-0.1-0.1-0.1
			c0-2.1,0-4.2,0-6.2c0-0.1-0.1-0.2-0.1-0.2c-0.3-0.2-0.6-0.3-0.8-0.4c-0.6-0.4-1.3-0.9-1.9-1.3c-0.5-0.4-1-0.7-1.7-0.7
			c-0.8,0-1.5,0.3-2.1,0.7C55.7,38.5,55,39,54,39.6v-3.7C55,35.8,54.3,35.7,54.4,35.7z"/>
			<path d="M48.1,52.9c-0.2-0.1-0.4-0.2-0.7-0.1c-0.8,0-1.5-0.3-2.1-0.8c-0.8-0.5-1.5-1.2-2.3-1.5c-1.2-0.6-2.5-0.6-3.7,0
			c-0.8,0.4-1.6,1-2.4,1.5c-0.3,0.2-0.7,0.4-1,0.6c-0.8,0.4-1.6,0.1-2.2-0.3c-0.6-0.4-1.2-0.9-1.8-1.3c-1.9-1.3-3.8-1.3-5.7,0
			c-0.5,0.4-1.1,0.8-1.6,1.1c-0.5,0.4-1.1,0.6-1.7,0.7c-0.9,0.1-1,0.6-1.1,1.4c0,0.1,0.3,0.1,0.3,0.2c0,7.1,0,14.1,0,21.2
			c0,0.6-0.1,1.1,0.4,1.4c0.3,0.1,0.4,0.2,0.8,0.2c1,0,1.8-0.4,2.6-1c0.6-0.4,1.1-0.8,1.6-1.2c1.1-0.8,2-0.8,3.1,0
			c0.7,0.4,1.3,0.9,2,1.4c1.3,0.8,2.7,1.1,4.2,0.6c0.7-0.3,1.4-0.7,2-1.2c0.6-0.4,1.2-0.8,1.8-1.1c0.7-0.4,1.5-0.2,2.1,0.3
			c0.8,0.5,1.5,1,2.3,1.5c0.8,0.5,1.6,0.8,2.5,0.8c0.6,0,1-0.2,1.3-0.7c0.1-0.1,0.1-0.3,0.1-0.5c0-7.4,0-14.7,0-22.1
			C48.9,53.4,48.5,53.1,48.1,52.9z M43.3,65.1c-0.5-0.4-1.2-0.7-1.8-0.8c-0.8-0.1-1.5,0.3-2.2,0.8c-0.8,0.6-1.6,1.2-2.5,1.6
			c-0.2,0.1-0.2,0.2-0.2,0.4c0,2.1,0,4.2,0,6.3c-0.4,0.2-1.9,0.9-3.2,0c0,0-0.1-0.1-0.1-0.1c0-2.1,0-4.2,0-6.2
			c0-0.1-0.1-0.2-0.1-0.2c-0.3-0.2-0.6-0.3-0.8-0.4c-0.6-0.4-1.3-0.9-1.9-1.3c-0.5-0.4-1-0.7-1.7-0.7c-0.8,0-1.5,0.3-2.1,0.7
			c-0.8,0.5-1.5,1.1-2.5,1.6V63c1-0.1,0.4-0.2,0.5-0.2c0.7-0.5,1.5-1.1,2.3-1.4c0.2-0.1,0.7-0.2,0.7-0.3c0-1.6,0.5-3.3,0.5-4.9
			c0-0.7,0-1.4,0-2.2c0,0-0.4-0.1-0.3-0.1c0,0-0.2,0-0.2-0.1c0.7-0.4,1.7-0.7,2.9-0.1c0,2.5-0.1,5-0.1,7.5c0,0.1,0.1,0.2,0.1,0.2
			c0.3,0.2,0.7,0.3,1,0.5c0.8,0.5,1.5,1.1,2.3,1.6c0.4,0.3,0.9,0.4,1.4,0.3c0.7-0.1,1.3-0.5,1.8-0.9c0.7-0.6,1.5-1.2,2.3-1.5
			c0.2-0.1,0.2-0.2,0.2-0.4c0-2.4,0.1-4.8,0.1-7.2c0.7-0.4,1.4-0.9,3.4-0.1c0,0,0,0,0,0c0,0-0.1,0-0.1,0c0,2.5-0.1,4.9-0.1,7.4
			c0,0.1,0,0.2,0.1,0.2c0.4,0.2,0.9,0.4,1.3,0.7c0.5,0.4,0.7,0.8,1.7,1.2v3.5C45,66.3,44.1,65.7,43.3,65.1z"/>
			<path d="M78,52.9c-0.2-0.1-0.4-0.2-0.7-0.1c-0.8,0-1.5-0.3-2.1-0.8c-0.8-0.5-1.5-1.2-2.3-1.5c-1.2-0.6-2.5-0.6-3.7,0
			c-0.8,0.4-1.6,1-2.4,1.5c-0.3,0.2-0.7,0.4-1,0.6c-0.8,0.4-1.6,0.1-2.2-0.3c-0.6-0.4-1.2-0.9-1.8-1.3c-1.9-1.3-3.8-1.3-5.7,0
			c-0.5,0.4-1.1,0.8-1.6,1.1c-0.5,0.4-1.1,0.6-1.7,0.7c-0.9,0.1-1.4,0.6-1.5,1.4c0,0.1-0.1,0.1-0.1,0.2c0,7.1,0,14.1,0,21.2
			c0,0.6,0.3,1.1,0.8,1.4c0.3,0.1,0.7,0.2,1,0.2c1,0,1.9-0.4,2.7-1c0.6-0.4,1.1-0.8,1.7-1.2c1.1-0.8,2-0.8,3.1,0
			c0.7,0.4,1.3,0.9,2,1.4c1.3,0.8,2.7,1.1,4.2,0.6c0.7-0.3,1.4-0.7,2-1.2c0.6-0.4,1.2-0.8,1.8-1.1c0.7-0.4,1.5-0.2,2.1,0.3
			c0.8,0.5,1.5,1,2.3,1.5c0.8,0.5,1.6,0.8,2.5,0.8c0.6,0,1-0.2,1.3-0.7c0.1-0.1,0.1-0.3,0.1-0.5c0-7.4,0-14.7,0-22.1
			C78.8,53.4,78.4,53.1,78,52.9z M75.5,66.9c-1-0.4-1.8-1.1-2.7-1.8c-0.5-0.4-1-0.7-1.7-0.8c-0.8-0.1-1.5,0.3-2.1,0.8
			c-0.8,0.6-1.6,1.2-2.5,1.6c-0.2,0.1-0.2,0.2-0.2,0.4c0,2.1,0,4.2,0,6.3c-0.4,0.2-1.9,0.9-3.2,0c0,0-0.1-0.1-0.1-0.1
			c0-2.1,0-4.2,0-6.2c0-0.1-0.1-0.2-0.1-0.2c-0.3-0.2-0.6-0.3-0.8-0.4c-0.6-0.4-1.3-0.9-1.9-1.3c-0.5-0.4-1-0.7-1.7-0.7
			c-0.8,0-1.5,0.3-2.1,0.7c-0.8,0.5-1.5,1.1-2.5,1.6V63c1-0.1,0.3-0.2,0.4-0.2c0.7-0.5,1.4-1.1,2.3-1.4c0.2-0.1,0.2-0.2,0.2-0.3
			c0-1.6,0.1-3.3,0.1-4.9c0-0.7,0-1.4,0-2.2c0,0,0.1-0.1,0.1-0.1c0,0,0,0,0-0.1c0.7-0.4,1.8-0.7,3-0.1c0,2.5,0,5,0,7.5
			c0,0.1,0.1,0.2,0.1,0.2c0.3,0.2,0.7,0.3,1,0.5c0.8,0.5,1.5,1.1,2.3,1.6c0.4,0.3,0.9,0.4,1.5,0.3c0.7-0.1,1.3-0.5,1.8-0.9
			c0.7-0.6,1.5-1.2,2.3-1.5c0.2-0.1,0.2-0.2,0.2-0.4c0-2.4,0.2-4.8,0.2-7.2c0.7-0.4,1.4-0.9,3.4-0.1c0,0,0,0,0,0c0,0-0.2,0-0.2,0
			c0,2.5-0.1,4.9-0.1,7.4c0,0.1,0,0.2,0.1,0.2c0.4,0.2,1,0.4,1.4,0.7c0.5,0.4-0.2,0.8,1.8,1.2v3.6c0,0.1-0.2,0.1-0.2,0.2
			C75.8,66.9,75.6,66.9,75.5,66.9z"/>
		</symbol>

		<symbol id="c19" viewBox="0 0 100 100">
			<path d="M50,100C22.4,100,0,77.6,0,50C0,22.4,22.4,0,50,0s50,22.4,50,50C100,77.6,77.6,100,50,100z M50,5.2
			C25.3,5.2,5.2,25.3,5.2,50c0,24.7,20.1,44.8,44.8,44.8S94.7,74.7,94.7,50C94.7,25.3,74.7,5.2,50,5.2z"/>
			<path d="M58.4,43.9c-1.1-0.1-2.5,0-4,0.2c-8.4,1.4-12.9,7.6-13.8,14.1h0.2c1.9-2.5,5.2-4.6,9.6-4.6c7,0,12,5.1,12,12.8
			c0,7.3-4.9,14-13.2,14c-8.5,0-14-6.6-14-16.9c0-7.8,2.8-14,6.7-17.9c3.3-3.2,7.7-5.2,12.7-5.9c1.6-0.2,2.9-0.3,3.9-0.3V43.9z
			 M49.2,76.3c4.6,0,7.7-3.8,7.7-9.5c0-5.7-3.2-9.1-8.2-9.1c-3.2,0-6.2,2-7.7,4.9c-0.4,0.6-0.6,1.4-0.6,2.4
			C40.5,71.5,43.5,76.3,49.2,76.3L49.2,76.3z"/>
			<path d="M40.1,25.5v0.6h-2.6v1.6c0.2,0,0.5,0,0.7,0c0.6,0,1.1,0.1,1.5,0.4c0.4,0.3,0.8,0.8,0.8,1.4c0,0.6-0.2,1-0.5,1.3
			c-0.5,0.5-1.3,0.7-2.1,0.7c-0.5,0-0.9,0-1.2-0.1v-5.9H40.1z M37.6,30.9c0.2,0,0.4,0,0.6,0c0.5,0,1-0.1,1.2-0.5
			c0.2-0.2,0.3-0.5,0.3-0.9c0-0.5-0.2-0.8-0.5-1c-0.3-0.2-0.7-0.3-1.1-0.3c-0.2,0-0.4,0-0.6,0V30.9z"/>
			<path d="M46.6,28.4c0,2-1.2,3.1-2.7,3.1c-1.6,0-2.7-1.2-2.7-3c0-1.9,1.2-3.1,2.7-3.1C45.5,25.4,46.6,26.7,46.6,28.4z M42,28.5
			c0,1.3,0.7,2.4,1.9,2.4c1.2,0,1.9-1.1,1.9-2.5c0-1.2-0.6-2.4-1.9-2.4C42.6,26.1,42,27.2,42,28.5z"/>
			<path d="M51.4,25.5v5.9h-0.8v-5.3h-2V28c0,1.3-0.1,2.7-0.9,3.3c-0.2,0.1-0.6,0.3-0.9,0.3l-0.1-0.6c0.2,0,0.5-0.2,0.6-0.3
			c0.5-0.5,0.5-1.6,0.5-2.6v-2.5H51.4z"/>
			<path d="M55.8,28.7h-2.3v2.1h2.6v0.6h-3.3v-5.9h3.2v0.6h-2.4V28h2.3V28.7z"/>
			<path d="M60.1,28.7h-2.3v2.1h2.6v0.6H57v-5.9h3.2v0.6h-2.4V28h2.3V28.7z"/>
		</symbol>

		<symbol id="c20" viewBox="0 0 100 100">			
			<path d="M50,100C22.5,100,0,77.6,0,50S22.5,0,50,0s50,22.4,50,50S77.6,100,50,100z M50,5.2C25.4,5.2,5.3,25.3,5.3,50
			S25.4,94.8,50,94.8S94.8,74.7,94.8,50S74.7,5.2,50,5.2z"/>
			<path d="M56.8,46.5c-0.9,0.9-1.8,1.9-2.8,2.8c-0.6,0.6-1.4,0.7-2.2,0.5c-0.2-0.1-0.4-0.2-0.6-0.4c-1.8-2.1-4.9-2.4-6.9-0.4
				c-2.3,2.2-4.5,4.5-6.8,6.8c-1.3,1.4-1.7,3-1,4.8c0.7,1.8,2,2.8,3.9,3.1c1.5,0.2,2.8-0.3,3.8-1.4c0.8-0.8,1.6-1.6,2.4-2.4
				c0.1-0.1,0.2-0.2,0.5-0.1c2.3,1,4.7,1.3,7.2,0.9c0.1,0,0.1,0,0.2,0c0,0,0,0,0.1,0c0,0,0,0.1,0,0.1c-2.1,2.1-4.1,4.2-6.2,6.2
				c-1.8,1.7-4,2.6-6.5,2.9c-5.5,0.5-10.7-3.2-11.7-9c-0.6-3.5,0.3-6.7,2.8-9.3c2.3-2.4,4.7-4.8,7.1-7.1c1.8-1.8,4-2.8,6.6-2.9
				c4.2-0.3,7.5,1.3,9.9,4.7C56.6,46.3,56.7,46.4,56.8,46.5z"/>
			<path d="M45.3,39.3c0.2-0.2,0.5-0.4,0.7-0.7c1.7-1.7,3.5-3.4,5.2-5.2c1.8-1.8,3.9-2.9,6.4-3.2c5.7-0.7,11,3.1,12,8.7
				c0.7,3.7-0.2,7-2.9,9.7c-2.3,2.4-4.7,4.8-7.2,7.2c-1.7,1.6-3.8,2.5-6.2,2.7c-3.7,0.3-6.8-1-9.2-3.7c-0.3-0.4-0.6-0.8-0.9-1.1
				c1-1,1.9-2,2.9-3c0.6-0.5,1.3-0.6,2-0.4c0.2,0.1,0.4,0.2,0.5,0.3c1.8,2.1,4.9,2.4,6.9,0.4c2.2-2.2,4.5-4.4,6.7-6.7
				c2.6-2.7,1.3-7-2.3-7.8c-1.7-0.4-3.2,0.1-4.4,1.3c-0.8,0.8-1.6,1.6-2.4,2.4c-0.2,0.2-0.3,0.2-0.5,0.1c-2.3-1-4.7-1.3-7.2-0.9
				C45.5,39.4,45.4,39.3,45.3,39.3C45.4,39.3,45.3,39.3,45.3,39.3z"/>
		</symbol>

		<symbol id="c21" viewBox="0 0 100 100">
			<path d="M50,100C22.4,100,0,77.6,0,50C0,22.4,22.4,0,50,0s50,22.4,50,50C100,77.6,77.6,100,50,100z M50,5.2
			C25.3,5.2,5.2,25.3,5.2,50c0,24.7,20.1,44.7,44.8,44.7S94.8,74.7,94.8,50C94.8,25.3,74.7,5.2,50,5.2z"/>
			<path d="M79.9,61.5c0,3.8,0,7.6,0,11.4c-0.4,1-1.1,1.2-2,0.8c-2-0.7-3.9-1.4-5.9-2.1c-0.3-0.1-0.6-0.1-0.9,0c-2,0.7-4,1.4-6,2.1
			c-0.4,0.2-0.8,0.2-1.3,0c-2-0.7-4-1.4-6-2.1c-0.3-0.1-0.7-0.1-1,0c-2,0.7-4,1.4-6.1,2.1c-0.4,0.1-0.8,0.1-1.2,0
			c-2-0.7-4.1-1.4-6.1-2.1c-0.3-0.1-0.6-0.1-0.9,0c-2,0.7-4,1.4-6.1,2.1c-0.4,0.2-0.8,0.2-1.3,0c-2-0.7-4.1-1.4-6.1-2.1
			c-0.3-0.1-0.6-0.1-0.9,0c-2,0.7-3.9,1.3-5.9,2.1c-1,0.4-1.7,0.1-2-0.8c0-3.8,0-7.6,0-11.4c0,0,0.1-0.1,0.1-0.1
			c1.6-6.3,3.2-12.7,4.7-19c1.3-5.1,2.5-10.2,3.8-15.3c0.2-0.8,0.6-1.1,1.4-1.1c2.8,0,5.5,0,8.3,0c3.3,0,6.6,0,9.9,0
			c3.7,0,7.4,0,11.1,0c3.4,0,6.8,0,10.3,0c0.9,0,1.4,0.4,1.6,1.3c1.4,5.5,2.8,11.1,4.2,16.6c1.1,4.6,2.3,9.2,3.4,13.8
			C79.2,59,79.6,60.2,79.9,61.5z M77.3,63c-1.8-0.6-3.5-1.2-5.2-1.8c-0.4-0.1-0.8-0.1-1.2,0c-1.9,0.6-3.9,1.4-5.8,2
			c-0.5,0.2-1.1,0.1-1.6,0c-1.9-0.6-3.8-1.3-5.7-2c-0.3-0.1-0.7-0.2-1,0c-2,0.6-3.9,1.4-5.9,2c-0.5,0.2-1.1,0.2-1.6,0
			c-2-0.6-3.9-1.4-5.9-2c-0.3-0.1-0.7-0.1-1,0c-1.9,0.6-3.8,1.3-5.7,2c-0.6,0.2-1.2,0.2-1.7,0c-2-0.7-4-1.4-6-2.1
			c-0.2-0.1-0.5-0.1-0.7-0.1c-1.8,0.6-3.5,1.2-5.2,1.8c-0.1,0-0.3,0.3-0.3,0.4c0,1.1,0,2.2,0,3.3c1.7-0.6,3.4-1.2,5.1-1.8
			c0.5-0.2,0.9-0.2,1.3,0c2,0.7,4,1.4,6.1,2.1c0.3,0.1,0.7,0.1,1,0c2-0.7,4-1.4,6-2.1c0.4-0.1,0.9-0.1,1.3,0
			c2.1,0.7,4.1,1.4,6.1,2.1c0.2,0.1,0.6,0.1,0.8,0c2-0.7,4.1-1.4,6.1-2.1c0.5-0.2,0.9-0.2,1.3,0c2,0.7,4,1.4,6.1,2.1
			c0.3,0.1,0.6,0.1,0.9,0c1.8-0.6,3.6-1.2,5.4-1.9c0.9-0.4,1.7-0.4,2.7,0c1.5,0.6,3,1,4.5,1.6C77.3,65.4,77.3,64.2,77.3,63z
			 M52.2,59c1.2-0.4,2.3-0.8,3.4-1.2c0.9-0.4,1.8-0.5,2.8-0.1c1,0.4,2.1,0.7,3.2,1.1c0-0.1,0-0.2,0-0.3c-0.2-1.2-0.3-2.5-0.5-3.7
			c-0.1-1-0.3-2.1-0.4-3.1c0-0.2-0.3-0.5-0.5-0.5c-1.2-0.4-2.4-0.9-3.6-1.3c-0.2-0.1-0.4-0.1-0.6,0c-1.2,0.4-2.4,0.8-3.6,1.2
			c-0.1,0.1-0.3,0.3-0.3,0.4C52.2,54,52.2,56.5,52.2,59z M38.3,58.9c1.2-0.4,2.2-0.7,3.2-1.1c1-0.4,1.9-0.3,2.9,0.1
			c1.1,0.4,2.2,0.8,3.3,1.2c0-2.5,0-5,0-7.5c0-0.1-0.2-0.3-0.3-0.4c-1.2-0.4-2.3-0.8-3.5-1.2c-0.2-0.1-0.5-0.1-0.8,0
			c-1.1,0.4-2.2,0.8-3.3,1.1c-0.6,0.2-0.7,0.5-0.7,1c-0.2,1.4-0.4,2.9-0.5,4.3C38.5,57.2,38.4,58,38.3,58.9z M75.5,58.7
			c-0.6-2.5-1.2-4.8-1.8-7.1c0-0.1-0.2-0.2-0.4-0.3c-1.3-0.5-2.6-0.9-3.8-1.3c-0.2-0.1-0.4-0.1-0.6,0c-1.1,0.4-2.2,0.8-3.4,1.1
			c-0.3,0.1-0.4,0.3-0.3,0.5c0.3,2.5,0.6,5,1,7.5c0.1,0,0.2-0.1,0.4-0.1c1.3-0.4,2.6-0.9,3.8-1.3c0.8-0.3,1.5-0.3,2.3,0
			C73.5,58.1,74.5,58.4,75.5,58.7z M33.9,59.2c0.1-0.6,0.1-1.1,0.2-1.7c0.3-2,0.5-3.9,0.8-5.9c0-0.1-0.2-0.4-0.3-0.4
			c-1.1-0.4-2.3-0.8-3.5-1.2c-0.2-0.1-0.4,0-0.6,0c-1.2,0.4-2.5,0.9-3.7,1.3c-0.4,0.1-0.5,0.3-0.6,0.6c-0.2,1-0.5,2-0.7,2.9
			c-0.3,1.3-0.6,2.5-1,3.9c1.2-0.4,2.2-0.8,3.3-1.1c0.4-0.1,0.9-0.1,1.2,0C30.6,58.1,32.2,58.6,33.9,59.2z M47.8,40.1
			c-1-0.3-1.9-0.7-2.9-1c-0.3-0.1-0.7-0.1-1.1,0c-0.9,0.3-1.7,0.6-2.6,0.9c-0.5,0.1-0.6,0.5-0.7,0.9c-0.1,0.8-0.2,1.7-0.3,2.5
			c-0.1,1-0.2,2-0.4,3.1c0.4-0.1,0.7-0.3,1-0.4c1.6-0.7,3.1-1.1,4.8-0.2c0.6,0.3,1.4,0.5,2.1,0.7C47.8,44.4,47.8,42.2,47.8,40.1z
			 M52.2,46.6c1.1-0.4,2.1-0.7,3.2-1.1c0.7-0.3,1.4-0.3,2,0c0.9,0.3,1.8,0.6,2.7,0.9c-0.1-1-0.2-1.8-0.3-2.7
			c-0.1-1.1-0.3-2.2-0.5-3.3c0-0.2-0.2-0.4-0.4-0.4c-1-0.4-2-0.7-3-1c-0.2-0.1-0.4-0.1-0.6,0c-1,0.3-1.9,0.6-2.9,1
			c-0.1,0.1-0.3,0.2-0.3,0.4C52.2,42.4,52.2,44.5,52.2,46.6z M72.3,46.2c0-0.1,0.1-0.1,0-0.2c-0.5-1.9-0.9-3.7-1.4-5.6
			c0-0.1-0.2-0.3-0.3-0.3c-1.1-0.4-2.2-0.8-3.3-1.1c-0.1,0-0.3-0.1-0.4,0c-0.9,0.3-1.8,0.6-2.7,0.9c-0.4,0.1-0.4,0.3-0.3,0.7
			c0.2,1.1,0.3,2.2,0.4,3.3c0.1,0.9,0.2,1.9,0.4,2.9c1.2-0.4,2.3-0.8,3.4-1.2c0.8-0.3,1.6-0.3,2.4,0C71,45.8,71.6,46,72.3,46.2z
			 M35.4,46.7c0.1-0.3,0.1-0.6,0.2-0.9c0.2-1.8,0.4-3.6,0.7-5.3c0-0.3,0-0.5-0.3-0.6c-0.9-0.3-1.8-0.6-2.6-0.9c-0.2-0.1-0.4,0-0.6,0
			c-1,0.3-2,0.7-3.1,1c-0.3,0.1-0.5,0.3-0.6,0.6c-0.2,1-0.5,2-0.7,3c-0.2,0.8-0.4,1.7-0.6,2.6c0.7-0.3,1.3-0.5,1.8-0.7
			c0.9-0.3,1.7-0.3,2.6,0C33.1,46,34.2,46.3,35.4,46.7z M47.7,35.4c0-2.1,0-4,0-5.9c-1.9,0-3.8,0-5.8,0c-0.2,1.9-0.5,3.8-0.7,5.9
			C43.5,33.9,45.6,34.3,47.7,35.4z M52.3,29.5c0,2,0,3.9,0,5.9c2.2-1.2,4.3-1.5,6.5-0.1c-0.3-2.1-0.5-4-0.8-5.8
			C56.1,29.5,54.2,29.5,52.3,29.5z M69.5,35C69.5,35,69.5,34.9,69.5,35c-0.4-1.8-0.8-3.5-1.2-5.2c0-0.1-0.3-0.2-0.4-0.3
			c-0.6,0-1.2,0-1.7,0c-1.2,0-2.4,0-3.6,0c0.3,2,0.5,4,0.8,6c1-0.4,2-0.8,2.9-1c0.6-0.1,1.2-0.1,1.7,0C68.4,34.6,68.9,34.8,69.5,35z
			 M36.8,35.5c0.2-2,0.5-4,0.7-6c-1.9,0-3.6,0-5.4,0c-0.1,0-0.4,0.2-0.4,0.4c-0.2,0.8-0.4,1.6-0.6,2.5c-0.2,0.9-0.4,1.7-0.6,2.6
			c1.1-0.2,2.1-1,3.2-0.6C34.7,34.8,35.7,35.1,36.8,35.5z"/>
		</symbol>

		<symbol id="c22" viewBox="0 0 100 100">
			<path d="M50,100C22.4,100,0,77.6,0,50S22.4,0,50,0s50,22.4,50,50S77.6,100,50,100z M50,5.2C25.3,5.2,5.2,25.3,5.2,50
			S25.3,94.8,50,94.8S94.8,74.7,94.8,50S74.7,5.2,50,5.2z"/>
			<path d="M71.4,68.3c-2.4,0-4.7,0-7.1,0c-1.7-0.6-2-1-2-2.8c0-0.5,0-1.1,0-1.6c-2.3,0-4.4,0-6.7,0c0,0.7,0,1.3,0,2
				c0,0.8-0.2,1.5-0.9,1.9c-0.3,0.2-0.8,0.3-1.2,0.5c-2.4,0-4.7,0-7.1,0c-1.6-0.6-2-1.1-2-2.9c0-0.5,0-1.1,0-1.6c-2.3,0-4.5,0-6.7,0
				c0,0.8,0,1.5,0,2.2c0,1-0.5,1.6-1.3,2c-0.2,0.1-0.5,0.1-0.7,0.2c-2.3,0-4.7,0-7,0c-0.3-0.1-0.6-0.2-0.8-0.3
				c-0.8-0.4-1.1-1-1.3-1.8c0-9.5,0-19,0-28.5c0.3-0.5,0.4-1,0.8-1.5c1-1.3,2.1-2.5,3.1-3.7c1-1.2,2.5-1.2,3.5,0
				c0.9,1.1,1.7,2.2,2.7,3.2c0.9,0.9,1.2,1.9,1.1,3.2c-0.1,0.9,0,1.7,0,2.6c2.3,0,4.4,0,6.7,0c0-1.2,0-2.3,0-3.5
				c0-0.6,0.2-1.1,0.6-1.6c1.1-1.3,2.2-2.6,3.3-3.9c1-1.2,2.5-1.1,3.5,0.1c0.8,1,1.6,2,2.4,2.9c1,1,1.4,2.2,1.3,3.6
				c-0.1,0.8,0,1.6,0,2.4c2.3,0,4.5,0,6.7,0c0-1.2,0-2.3,0-3.4c0-0.7,0.2-1.3,0.6-1.8c1.1-1.3,2.2-2.5,3.2-3.8c1-1.2,2.6-1.2,3.5,0
				c1,1.3,2,2.5,3.1,3.7c0.4,0.5,0.6,1.1,0.6,1.7c0,2.5,0,4.9,0,7.4c0,6.8,0,13.7,0,20.5c0,0.5-0.2,0.9-0.4,1.4
				C72.6,68,72,68.1,71.4,68.3z M37.8,46c0,1.5,0,3,0,4.4c2.2,0,4.4,0,6.6,0c0-1.5,0-2.9,0-4.4C42.2,46,40,46,37.8,46z M55.6,46
				c0,1.5,0,2.9,0,4.4c2.2,0,4.4,0,6.6,0c0-1.5,0-2.9,0-4.4C60,46,57.8,46,55.6,46z M37.8,59.3c2.2,0,4.4,0,6.6,0c0-1.5,0-2.9,0-4.4
				c-2.2,0-4.4,0-6.6,0C37.8,56.4,37.8,57.9,37.8,59.3z M62.3,59.4c0-1.5,0-2.9,0-4.4c-2.2,0-4.4,0-6.6,0c0,1.5,0,2.9,0,4.4
				C57.9,59.4,60,59.4,62.3,59.4z"/>
		</symbol>

		<symbol id="c23" viewBox="0 0 100 100">
			<path d="M50,100C22.4,100,0,77.6,0,50C0,22.4,22.4,0,50,0s50,22.4,50,50C100,77.6,77.6,100,50,100z M50,5.3
			C25.3,5.3,5.3,25.3,5.3,50c0,24.7,20.1,44.7,44.8,44.7S94.8,74.7,94.8,50C94.8,25.3,74.7,5.3,50,5.3z"/>
			<path d="M24.4,70.5c0,0,0-0.1,0-0.1c0.1-0.5,0.1-1.1,0.2-1.6c0.2-1.6,0.3-3.2,0.4-4.7c0.2-2,0.4-4,0.6-6c0.1-1.5,0.3-3.1,0.4-4.6
			c0.2-2,0.4-3.9,0.6-5.9c0.2-1.9,0.4-3.9,0.5-5.8c0.2-2,0.4-4,0.6-6.1c0.1-1,0.5-1.4,1.4-1.4c2.4,0,4.7,0,7.1,0
			c0.9,0,1.3,0.3,1.4,1.2c0.1,0.8,0.2,1.6,0.2,2.3c0.2,1.8,0.4,3.7,0.5,5.5c0.2,1.9,0.4,3.8,0.6,5.7c0.1,0.8,0.2,1.5,0.2,2.4
			c0.6,0,1.2,0,1.7,0c0.3,0,0.6-0.1,0.7-0.3c3.1-2.9,6.1-5.7,9.1-8.6c0.1-0.1,0.3-0.3,0.4-0.3c0.7-0.3,1.4,0.2,1.4,1.1
			c0,2.4,0,4.8,0,7.2c0,0.2,0,0.3,0,0.6c0.3-0.3,0.6-0.5,0.8-0.8c2.8-2.6,5.6-5.2,8.3-7.8c0.3-0.3,0.7-0.5,1.2-0.3
			c0.5,0.2,0.7,0.5,0.7,1.2c0,2.3,0,4.7,0,7c0,0.2,0,0.4,0,0.6c0.2-0.2,0.4-0.3,0.5-0.4c0.8-0.8,1.7-1.6,2.5-2.4
			c2.1-1.9,4.1-3.9,6.2-5.8c0.6-0.5,1.3-0.4,1.7,0.2c0.1,0.2,0.1,0.4,0.2,0.5c0,9.1,0,18.2,0,27.3c-0.3,1-0.4,1-1.5,1
			c-15.8,0-31.6,0-47.3,0C24.9,71.5,24.7,71.4,24.4,70.5z M59.9,60.9c-1.5,0-3,0-4.5,0c0,0.7,0,1.4,0,2.1c1.5,0,3,0,4.5,0
			C59.9,62.2,59.9,61.6,59.9,60.9z M65.4,62.9c1.5,0,3,0,4.5,0c0-0.7,0-1.4,0-2.1c-1.5,0-3,0-4.5,0C65.4,61.6,65.4,62.2,65.4,62.9z"
			/>
			<path d="M37.4,21.5c0.4,0.6,0.9,1.1,1.3,1.7c-1.5,1.1-3,2.3-4.4,3.4c-0.3,0.2-0.5,0.5-0.5,0.9c0,1.6,0,3.2,0,4.8
			c0,0.2,0,0.4,0,0.6c-0.7,0-1.4,0-2.1,0c0-0.2,0-0.3,0-0.5c0-1.9,0-3.8,0-5.8c0-0.5,0.2-0.9,0.5-1.2C33.9,24.1,35.6,22.8,37.4,21.5
			z"/>
		</symbol>

		<symbol id="c24" viewBox="0 0 100 100">
			<path d="M50,100C22.4,100,0,77.6,0,50C0,22.4,22.4,0,50,0s50,22.4,50,50C100,77.6,77.5,100,50,100z M50,5.2
			C25.3,5.2,5.3,25.3,5.3,50c0,24.7,20.1,44.8,44.7,44.8S94.7,74.7,94.7,50C94.7,25.3,74.7,5.2,50,5.2z"/>
			<path d="M38.2,17.4c0.5,0.6,0.9,1.2,1.4,1.8c-1.6,1.2-3.2,2.4-4.7,3.6c-0.4,0.3-0.5,0.5-0.5,1c0,1.7,0,3.4,0,5.1c0,0.2,0,0.4,0,0.6
			c-0.8,0-1.5,0-2.2,0c0-0.2,0-0.3,0-0.5c0-2,0-4.1,0-6.1c0-0.5,0.2-0.9,0.6-1.2C34.5,20.3,36.4,18.9,38.2,17.4z"/>
			<path d="M77.2,41.2c-0.4-0.6-1.5-0.7-2.1-0.2c-1.8,1.7-3.7,3.4-5.5,5.1c0,5.6-2.6,8.3-6.1,12.1L61.3,60
			c0,0,0.7,0,0.7,0c0,1,0,2,0,2c-1,0-2,0-2.7,0l-2.1,3H71v8c1,0,2.3,0,4.2,0c1.1,0,1.8-1.1,2.8-2.2c0-9.7,0-19.4,0-29.1
			C77,41.6,77.3,41.4,77.2,41.2z M73,62c-2,0-4,0-5,0c0,0,0-1,0-2c1,0,3,0,5,0C73,61,73,62,73,62z"/>
			<path d="M38.6,48H36v-1.9c0-2.6,0.7-4.9,1.7-7c-0.1-1-0.1-2-0.2-3c-0.1-0.8-0.1-1.7-0.2-2.5
			c-0.1-1-0.5-1.3-1.5-1.3c-2.5,0-5,0-7.5,0c-1,0-1.4,0.4-1.5,1.5c-0.2,2.2-0.4,4.3-0.6,6.5c-0.2,2.1-0.4,4.1-0.6,6.2
			c-0.2,2.1-0.4,4.2-0.6,6.3c-0.2,1.6-0.3,3.3-0.5,4.9c-0.2,2.1-0.4,4.2-0.6,6.4c-0.2,1.7-0.4,3.4-0.6,5c-0.1,0.6-0.3,1.1-0.3,1.7
			c0,0,0,0.1,0,0.1c0,1,0.7,2.2,1.8,2.2c3.8,0,7.2,0,11.2,0v-6.3l16.6-17.9c0.2-0.2,0.5-0.4,0.7-0.6c0-1.2,0-2.4,0-3.6
			c-0.1,0,0,0-0.2,0c-1,0-1.1,0.2-1.1,1.6V48h-8.6H38.6z"/>
			<path d="M38.6,76.7v-3.3l4.2-4.1c10.1-9.6,14.7-14.8,14.8-20.8c0-4-2-7.8-7.9-7.8c-3.6,0-6.6,1.8-8.4,3.4l-1.7-3.8
			c2.7-2.3,6.6-4,11.2-4c8.5,0,12.1,5.9,12.1,11.5c0,7.3-5.3,13.3-13.7,21.3l-3.2,2.9v0.1h17.8v4.5H38.6z"/>
		</symbol>
		
		<symbol id="e1" viewBox="0 0 100 100">
			<path d="M35.1,75.9c-1,0-2.1,0.5-2.9,1.3C31.4,78,31,79,31,80c0,2.1,2,4,4.2,4h0c2.2,0,4.1-1.9,4.1-4.1
			C39.3,77.8,37.3,75.9,35.1,75.9z M36.7,80c0,0.4-0.3,0.6-0.5,0.8C36,81,35.4,81,35.1,81c0,0,0,0,0,0c-0.4,0-0.7,0-0.8-0.2
			C34.1,80.6,34,80.4,34,80c0-0.5,0.2-0.8,1.1-0.8l0-0.2H36v-0.1C36,78.9,36.7,79.3,36.7,80z M35.1,83.7L35.1,83.7L35.1,83.7
			L35.1,83.7z"/>
			<path d="M33.7,5.6c0,0,0,0.1,0,0.1c0.2,0.5,0.6,0.8,1,1.1c0.1,0.1,0.3,0.2,0.4,0.4l0.3,0.3l0.3-0.3
			C35.9,7.1,36,7,36.1,6.9c0.4-0.3,0.8-0.7,1-1.1c0.1-0.3,0.1-0.6-0.1-1c-0.3-0.5-1-0.9-1.6-0.9c-0.6,0-1.2,0.4-1.6,0.9
			c-0.2,0.3-0.2,0.5-0.2,0.8l-0.1,0.1L33.7,5.6z M35.1,5.6C35.1,5.6,35.1,5.6,35.1,5.6c0.1-0.1,0.2-0.2,0.3-0.2
			c0.1,0.1,0.1,0.2,0.2,0.2c-0.1,0.1-0.2,0.2-0.2,0.2C35.3,5.8,35.2,5.7,35.1,5.6z"/>
			<path d="M44.3,45.7c0,1.6,0,3.3,0,4.9c0,0.5-0.2,0.8-0.6,1.1c-2.7,1.7-5.4,3.4-8.2,5.1c-0.2,0.1-0.7,0.1-1,0
			c-2.7-1.7-5.4-3.4-8.1-5.1c-0.4-0.3-0.6-0.6-0.6-1.1c0-3.3,0-6.5,0-9.8c0-0.5,0.2-0.8,0.7-1.1c2.6-1.5,5.3-3,7.9-4.5
			c0.5-0.3,0.9-0.3,1.4,0c2.6,1.5,5.3,3.1,8,4.6c0.4,0.2,0.6,0.5,0.6,0.9C44.3,42.4,44.3,44.1,44.3,45.7
			C44.3,45.7,44.3,45.7,44.3,45.7z M34.3,54.8c0-0.2,0-0.2,0-0.3c0-2.6,0-5.2,0-7.8c0-0.2-0.2-0.5-0.4-0.6c-2-1.3-3.9-2.5-5.9-3.7
			c-0.2-0.1-0.3-0.2-0.5-0.3c0,0.2,0,0.2,0,0.3c0,2.6,0,5.2,0,7.8c0,0.2,0.2,0.4,0.4,0.5c1.8,1.1,3.6,2.3,5.4,3.4
			C33.5,54.3,33.9,54.5,34.3,54.8z M42.8,42c-0.2,0.1-0.3,0.1-0.4,0.2c-2.1,1.3-4.1,2.6-6.2,3.9c-0.2,0.1-0.3,0.4-0.3,0.6
			c0,2.6,0,5.1,0,7.7c0,0.1,0,0.2,0,0.4c0.2-0.1,0.3-0.2,0.5-0.3c2-1.2,3.9-2.5,5.9-3.7c0.3-0.2,0.4-0.4,0.4-0.8c0-2.5,0-4.9,0-7.4
			C42.8,42.4,42.8,42.3,42.8,42z M42,40.6c-0.1-0.1-0.1-0.1-0.2-0.2c-2.1-1.2-4.3-2.5-6.4-3.7c-0.2-0.1-0.5-0.1-0.7,0.1
			c-1.8,1-3.5,2-5.2,3c-0.4,0.2-0.8,0.5-1.2,0.7c0.1,0.1,0.1,0.1,0.2,0.2c2.1,1.4,4.3,2.7,6.4,4c0.1,0.1,0.4,0,0.5,0
			c0.9-0.5,1.8-1.1,2.6-1.6C39.3,42.3,40.6,41.5,42,40.6z"/>
			<path d="M35.1,32.1c-7.1,0-14.3,0-21.4,0c-0.1,0-0.3,0-0.4,0c-0.2-0.1-0.5-0.3-0.5-0.4c0-0.2,0.2-0.4,0.4-0.5c0.1-0.1,0.3,0,0.5,0
			c14.3,0,28.6,0,42.9,0c0.2,0,0.4,0,0.5,0.1c0.1,0.1,0.3,0.3,0.3,0.5c0,0.2-0.2,0.3-0.4,0.4c-0.1,0.1-0.3,0-0.5,0
			C49.3,32.1,42.2,32.1,35.1,32.1C35.1,32.1,35.1,32.1,35.1,32.1z"/>
			<path d="M19.7,29.2c0,0.3-0.3,0.5-0.6,0.5c-0.4,0-0.6-0.3-0.6-0.7c0-0.4,0.3-0.6,0.7-0.6C19.4,28.4,19.7,28.6,19.7,29.2z"/>
			<path d="M13.3,29.2c0.1-0.6,0.3-0.8,0.7-0.8c0.3,0,0.6,0.3,0.6,0.7c0,0.4-0.3,0.6-0.7,0.6C13.6,29.6,13.4,29.3,13.3,29.2z"/>
			<path d="M16.6,28.3c0.1,0.2,0.4,0.4,0.5,0.7c0.1,0.3-0.3,0.7-0.6,0.7c-0.4,0-0.6-0.3-0.6-0.6C15.8,28.6,16.1,28.4,16.6,28.3z"/>
			<path d="M79,56H53v10h26V56z M55.7,58.7C55.8,58.6,55.7,58.6,55.7,58.7c0-0.1,0.1-0.1,0.2-0.1
			c0.1,0,0.1-0.3,0.2-0.3c0.1,0,0.2-0.3,0.3-0.3H76v5H56v-0.1C56,61.5,55.7,60.1,55.7,58.7z"/>
			<polygon points="60,69 57,69 57,72 55,72 55,75 57,75 57,77 60,77 60,75 62,75 62,72 60,72 		"/>
			<polygon points="74.4,69.4 72.5,71.1 71.1,69.4 68.8,71.6 70.7,73.1 68.9,74.6 71,76.8 72.7,75 74.3,76.8 
			76.4,74.6 74.5,72.9 76.4,71.5 		"/>
			<rect x="69" y="83" width="8" height="3"/>
			<rect x="55" y="83" width="7" height="3"/>
			<rect x="71" y="80" width="4" height="3"/>
			<rect x="71" y="86" width="4" height="3"/>
			<path d="M75.9,51H48v43h27.9H83v-0.5l0,0V51h-4.2H75.9z M81,91H51V53h30V91z"/>
			<path d="M44,86.4c-12,0-24.2,0-36.3,0c-2.6,0-4.5-2-4.7-4.9c0-0.2,0-0.3,0-0.5l0-16.1C3,46.2,3,27.5,3,8.8
			c0-1.6,0.2-3.3,1.7-4.4c0.6-0.4,1.3-0.7,2.1-1C7,3.3,7.2,3.2,7.4,3.1c0.1-0.1,0.3-0.1,0.5-0.1c0.1,0,0.1,0,0.2,0c0.1,0,0.2,0,0.2,0
			l21.7,0c10.6,0,21.2,0,31.8,0c2,0,3.3,0.6,4.3,1.9c0.7,0.9,1,2,1,3.4c0,9.3,0,18.8,0,28.1L67.3,47h2.9c0-13.3,0-25.5,0.1-38
			c0-2.3-0.9-4.7-2.5-6.3C66.1,1,63.9,0,61.5,0h-0.1c-7,0-14.4,0.1-23.9,0.1c-4.6,0-9.2,0-13.8,0C19.2,0,14.6,0,10,0H8.5
			C4.2,0,0.9,2.7,0.1,6.9C0,7.3,0,7.8,0,8.2C0,32.6,0,57,0,81.4c0,4.1,3.3,7.5,7.4,7.8c0.2,0,20.6,0,36.6,0V86.4z"/>
			<path d="M44,60c-3,0-5.9,0-9,0c-7.4,0-14.8,0.2-22.2,0.2c-0.5,0-1,0-1.4-0.4c-0.4-0.4-0.5-0.8-0.5-1.3c0-5.1,0-10.2,0-15.4
			c0-4.8,0-9.7,0-14.5c0-1.5,0.8-1.8,2.1-1.8c10.4,0,20.8,0.3,31.2,0.3c4.1,0,8.2,0,12.2,0c0.2,0,0.5-0.3,0.7-0.3
			c1.2,0.1,1.9,0.9,1.9,2.1c0,6,0,11,0,18.2H61c0-3.1,0-6.5,0-9.5c0-2.9-0.2-5.7-0.2-8.6c0-2.3-1-3.4-3.3-3.9c0,0-0.2,0-0.2,0
			c-14.9,0-29.7,0-44.6,0c-0.7,1-1.5,0.3-2.1,0.8c-0.8,0.7-1.3,1.6-1.3,2.7c0,10,0,19.9,0,29.9c0,1.8,1.6,3.6,3.5,3.6
			c10.4,0,21.1,0,31.1,0V60z"/>
		</symbol>
		<symbol id="e2" viewBox="0 0 100 100">
			<path d="M2.9,0c10.8,0,21.4,0,32.1,0c0,5.8,0,11.5,0,17.4c14.7,0,29.3,0,44,0c0,0.4,0,0.8,0,1.1c0,8.9,0,17.8,0,26.7
			c0,0.6,0.2,1,0.6,1.5c1.3,1.2,1.2,2.7-0.2,3.8c-0.2,0.2-0.4,0.7-0.4,1c0,6.9,0,13.7,0,20.6c0,3.7,0,7.4,0,11.1c0,0.3,0,0.6,0,1
			c0.5,0,1,0,1.4,0c0.8,0,1.5,0.7,1.5,1.4c0,0.7-0.6,1.4-1.4,1.4c-0.2,0-0.5,0-0.7,0C54,87,28.1,87,2.2,87c-0.2,0-0.5,0-0.7,0
			C0.6,86.9,0,86.3,0,85.5c0-0.8,0.7-1.4,1.5-1.4c0.4,0,0.9,0,1.4,0c0-0.4,0-0.7,0-1c0-10.5,0-21.1,0-31.6c0-0.5-0.1-0.9-0.6-1.2
			c-1.2-0.8-1.3-2.5-0.2-3.5c0.7-0.6,0.8-1.2,0.8-2c0-14.6,0-29.1,0-43.7C2.9,0.7,2.9,0.4,2.9,0z M76.3,47.8c-0.3-0.4-0.4-0.7-0.6-1
			c-4.3-3.9-8.6-7.9-13-11.8c-0.2-0.2-0.6-0.3-0.9-0.3c-13.9,0-27.8,0-41.7,0c-0.4,0-0.8,0.2-1,0.4c-4,3.6-7.9,7.1-11.9,10.7
			c-0.6,0.6-1.3,1.2-2,1.9C29,47.8,52.5,47.8,76.3,47.8z M5.9,2.9c0,13.4,0,26.7,0,40.2c4-3.6,7.9-7.1,11.8-10.6
			c0.5-0.4,0.9-0.6,1.6-0.6c4,0,8,0,11.9,0c0.3,0,0.6,0,0.9,0c0-9.7,0-19.3,0-29C23.4,2.9,14.7,2.9,5.9,2.9z M76.1,50.8
			c-23.5,0-46.8,0-70.2,0c0,11.1,0,22.2,0,33.3c1.5,0,2.9,0,4.4,0c0-9.7,0-19.3,0-28.9c20.5,0,40.9,0,61.4,0c0,9.7,0,19.3,0,28.9
			c1.5,0,2.9,0,4.4,0C76.1,72.9,76.1,61.9,76.1,50.8z M35.1,31.9c0.4,0,0.7,0,1,0c8.8,0,17.7,0,26.5,0c0.6,0,1.1,0.1,1.5,0.6
			c2.5,2.3,5,4.6,7.6,6.9c1.4,1.3,2.8,2.6,4.3,3.9c0-7.8,0-15.4,0-23c-13.7,0-27.3,0-40.9,0C35.1,24.2,35.1,28,35.1,31.9z M23.4,65.3
			c0,6.3,0,12.6,0,18.8c2.5,0,4.9,0,7.2,0c0-6.3,0-12.5,0-18.8C28.3,65.3,25.9,65.3,23.4,65.3z M33.7,65.3c0,6.3,0,12.6,0,18.8
			c2.4,0,4.8,0,7.2,0c0-6.3,0-12.5,0-18.8C38.5,65.3,36.2,65.3,33.7,65.3z M13.2,84c2.5,0,4.9,0,7.3,0c0-6.3,0-12.5,0-18.7
			c-2.4,0-4.8,0-7.3,0C13.2,71.5,13.2,77.8,13.2,84z M61.6,65.3c0,6.3,0,12.5,0,18.8c2.4,0,4.8,0,7.2,0c0-6.3,0-12.5,0-18.8
			C66.3,65.3,64,65.3,61.6,65.3z M49.7,84.1c0-6.3,0-12.6,0-18.8c-2,0-3.9,0-5.8,0c0,6.3,0,12.5,0,18.8
			C45.9,84.1,47.8,84.1,49.7,84.1z M52.8,65.3c0,6.3,0,12.5,0,18.8c2,0,3.9,0,5.8,0c0-6.3,0-12.5,0-18.8
			C56.6,65.3,54.7,65.3,52.8,65.3z M23.4,58c0,1.5,0,2.9,0,4.3c2.5,0,4.8,0,7.2,0c0-1.5,0-2.9,0-4.3C28.3,58,25.9,58,23.4,58z
			 M33.7,62.3c2.5,0,4.8,0,7.3,0c0-1.5,0-2.9,0-4.3c-2.4,0-4.8,0-7.3,0C33.7,59.4,33.7,60.8,33.7,62.3z M13.2,58c0,1.5,0,2.9,0,4.3
			c2.4,0,4.8,0,7.2,0c0-1.5,0-2.9,0-4.3C18,58,15.7,58,13.2,58z M68.8,62.3c0-1.5,0-2.9,0-4.3c-2.4,0-4.8,0-7.2,0c0,1.5,0,2.9,0,4.3
			C63.9,62.3,66.3,62.3,68.8,62.3z M49.8,62.3c0-1.5,0-2.9,0-4.3c-2,0-3.9,0-5.8,0c0,1.5,0,2.9,0,4.3C45.9,62.3,47.8,62.3,49.8,62.3z
			 M58.5,58c-2,0-3.8,0-5.8,0c0,1.5,0,2.9,0,4.3c2,0,3.9,0,5.8,0C58.5,60.8,58.5,59.4,58.5,58z"/>
			<path d="M11.7,20.3c0,3.7,0,7.5,0,11.2c0,1.2-0.5,1.8-1.4,1.8c-0.9,0-1.5-0.7-1.5-1.8c0-7.5,0-15,0-22.5c0-1.1,0.6-1.7,1.5-1.7
			c0.9,0,1.4,0.6,1.4,1.7c0,0.1,0,0.2,0,0.3C11.7,13,11.7,16.6,11.7,20.3z"/>
			<path d="M17.5,18.1c0,3.1,0,6.1,0,9.2c0,1.1-0.5,1.7-1.4,1.7c-0.9,0-1.5-0.6-1.5-1.7c0-6.1,0-12.2,0-18.3c0-1.1,0.6-1.7,1.5-1.7
			c0.9,0,1.4,0.6,1.4,1.7C17.5,12,17.5,15,17.5,18.1z"/>
			<path d="M23.4,16.6c0,2.6,0,5.2,0,7.7c0,1.1-0.5,1.6-1.4,1.7c-0.9,0-1.5-0.6-1.5-1.6c0-5.2,0-10.4,0-15.5c0-1,0.6-1.6,1.5-1.6
			c0.9,0,1.4,0.6,1.4,1.6C23.4,11.5,23.4,14.1,23.4,16.6z"/>
			<path d="M29.2,14.5c0,1.9,0,3.7,0,5.6c0,1-0.5,1.6-1.4,1.6c-0.8,0-1.5-0.6-1.5-1.6c0-3.8,0-7.5,0-11.3c0-1,0.6-1.6,1.5-1.6
			c0.9,0,1.3,0.6,1.3,1.6C29.2,10.7,29.2,12.6,29.2,14.5z"/>
		</symbol>
		<symbol id="e3" viewBox="0 0 83 94">
			<path d="M84.4,78.5c0,1.5,0,2.9,0,4.4c0,1.3-0.5,1.8-1.8,1.8c-1.1,0-2.2,0-3.3,0c-1.3,0-1.3,0-1.3,1.2c0,1.1,0,2.1,0,3.2
			c0,1.3-0.6,1.9-1.9,1.9c-1.9,0-3.7,0-5.6,0c-1.3,0-1.9-0.6-1.9-1.9c0-1.2-0.1-2.3,0-3.5c0.1-0.8-0.3-1-1-1c-6,0-11.9,0-17.9,0
			c-10.4,0-20.8,0-31.1,0c-0.9,0-1.2,0.2-1.1,1.1c0.1,1.1,0,2.2,0,3.3c0,1.4-0.6,2-2,2c-1.8,0-3.7,0-5.5,0c-1.4,0-2-0.6-2-1.9
			c0-1.4,0-2.8,0-4.4c-1.2,0-2.3,0-3.4,0c-2.3,0-3.1,0.1-2.9-2.8c0.1-1.1,0-2.2,0-3.3c-0.2-0.1-0.5-0.2-0.7-0.3
			C0.3,78-0.1,77.4,0,76.7c0.2-0.8,0.7-1.3,1.5-1.3c0.8,0,1.6,0,2.4,0c0.8,0.1,1-0.3,1-1c0-4.9,0-9.8,0-14.8c0-19.2,0-38.4,0-57.7
			C4.8,0.5,5.3,0,6.9,0C31,0,55.1,0,79.1,0c1.6,0,2.1,0.5,2.1,2c0,24,0,48,0,72.1c0,1.6,0,1.4,1.4,1.4c0.6,0,1.1,0,1.7,0
			c0.9,0,1.6,0.5,1.7,1.3c0.1,0.8-0.4,1.3-1.1,1.6C84.8,78.4,84.6,78.4,84.4,78.5z M14.3,43.9c0,0.3-0.1,0.5-0.1,0.7c0,10,0,20,0,30
			c0,0.8,0.3,0.9,1,0.9c18.6,0,37.1,0,55.7,0c0.8,0,1.1-0.3,1.1-1.1c0-9.9,0-19.8,0-29.6c0-0.3,0-0.6-0.1-0.9
			C52.6,43.9,33.5,43.9,14.3,43.9z M14.2,9.4c0,0.3,0,0.4,0,0.6c0,10,0,20,0,30.1c0,0.9,0.5,0.8,1.1,0.8c18.5,0,37,0,55.6,0
			c0.8,0,1-0.2,1-1c0-9.9,0-19.7,0-29.6c0-0.3,0-0.6,0-0.9C52.6,9.4,33.5,9.4,14.2,9.4z M78.1,3.1c-23.5,0-46.8,0-70.2,0
			c0,24.1,0,48.2,0,72.4c0.8,0,1.5-0.1,2.2,0c0.9,0.1,1.1-0.2,1.1-1.1c0-15.3,0-30.7,0-46c0-6.8,0-13.5,0-20.3c0-1.2,0.5-1.7,1.7-1.8
			c0.8,0,1.7,0,2.5,0c19.1,0,38.1,0,57.2,0c1.8,0,2.2,0.4,2.2,2.1c0,18.6,0,37.2,0,55.8c0,3.4,0,6.9,0,10.3c0,0.3-0.2,0.9,0.5,0.9
			c0.9,0,1.9,0,2.8,0C78.1,51.3,78.1,27.2,78.1,3.1z M81.3,81.6c0.1-0.1,0.1-0.2,0.1-0.2c0-0.6,0-1.2,0-1.9c0-1.2,0-1.2-1.2-1.2
			c-24.8,0-49.5,0-74.3,0c-0.3,0-0.6-0.1-0.8,0c-0.2,0.1-0.5,0.3-0.5,0.4c0,0.9,0,1.8,0,2.8C30.3,81.6,55.8,81.6,81.3,81.6z
			 M14.4,86.4c0-1.9,0.2-1.7-1.8-1.7c-1.8,0-1.6-0.2-1.6,1.6c0,2-0.2,1.7,1.7,1.7C14.6,88,14.4,88.2,14.4,86.4z M73.3,88
			c1.8,0,1.7,0.2,1.7-1.6c0,0,0-0.1,0-0.1c0-1.7,0.3-1.6-1.6-1.6c-2,0-1.7-0.2-1.8,1.7C71.6,88.3,71.5,88,73.3,88z"/>
			<path d="M54.2,37.8c-1.3,0-2-1.1-1.6-2.1c0.1-0.3,0.4-0.6,0.6-0.8c4.2-4.1,8.3-8.2,12.6-12.3c0.4-0.4,1.1-0.7,1.6-0.6
			c0.4,0.1,0.9,0.6,1.1,1.1c0.1,0.4-0.1,1.1-0.4,1.4c-4.2,4.3-8.5,8.5-12.8,12.7C54.9,37.5,54.5,37.7,54.2,37.8z"/>
			<path d="M18.8,31.7c-0.5-0.4-1-0.7-1.2-1.1c-0.4-0.6-0.1-1.2,0.4-1.8c1.7-1.6,3.3-3.3,5-4.9c1-1,2-2,3-2.9c0.8-0.7,1.7-0.8,2.3-0.1
			c0.6,0.6,0.6,1.5-0.2,2.2c-2.6,2.6-5.3,5.2-8,7.9C19.8,31.2,19.4,31.3,18.8,31.7z"/>
			<path d="M27.3,13.9c-0.3,0.5-0.5,1-0.7,1.3c-2.1,2.1-4.3,4.3-6.4,6.4c-0.7,0.7-1.7,0.7-2.3,0.1c-0.6-0.6-0.6-1.5,0.1-2.2
			c2.1-2.1,4.3-4.2,6.5-6.4c0.5-0.5,1.1-0.8,1.8-0.4C26.6,12.9,26.9,13.4,27.3,13.9z"/>
			<path d="M65,34.7c-0.3-0.3-0.9-0.5-1.1-0.9c-0.2-0.4-0.2-1.1,0.1-1.5c0.7-0.8,1.4-1.6,2.3-2.3c0.6-0.5,1.3-0.4,1.9,0.1
			c0.5,0.5,0.7,1.2,0.3,1.8c-0.8,0.9-1.7,1.7-2.5,2.5C65.7,34.6,65.4,34.6,65,34.7z"/>
			<path d="M31.6,16c0.2-1.1,2.6-3.6,3.5-3.5c0.5,0.1,1.1,0.4,1.3,0.8c0.2,0.4,0.2,1.2-0.1,1.5c-0.6,0.8-1.4,1.6-2.2,2.2
			c-0.3,0.3-1.1,0.3-1.5,0.1C32.2,16.9,32,16.4,31.6,16z"/>
			<path d="M62.1,37.8c-0.8,0-1.5-0.7-1.6-1.4c-0.1-0.8,0.9-1.8,1.7-1.8c0.9,0,1.6,0.6,1.6,1.4C63.8,36.8,62.9,37.8,62.1,37.8z"/>
			<path d="M31.9,18.7c0,0.8-1,1.8-1.8,1.8c-0.8,0-1.5-0.8-1.5-1.6c0-0.9,1-1.7,1.9-1.7C31.3,17.3,31.9,17.9,31.9,18.7z"/>
		</symbol>
		<symbol id="e4" viewBox="0 0 100 100"></symbol>		
	</defs>
</svg>
